<?xml version="1.0" encoding="utf-8"?>
<!-- Generator: Adobe Illustrator 17.0.0, SVG Export Plug-In . SVG Version: 6.00 Build 0)  -->
<!DOCTYPE svg PUBLIC "-//W3C//DTD SVG 1.1//EN" "http://www.w3.org/Graphics/SVG/1.1/DTD/svg11.dtd">
<svg version="1.1" id="Layer_1" xmlns="http://www.w3.org/2000/svg" xmlns:xlink="http://www.w3.org/1999/xlink" x="0px" y="0px"
	 width="640px" height="640px" viewBox="0 0 640 640" enable-background="new 0 0 640 640" xml:space="preserve">
<g>
	<path d="M281.373,72.969c17.034-0.001,34.07-0.108,51.103,0.024c27.094,0.21,54.189,0.464,81.277,1.028
		c3.321,0.069,6.835,1.732,9.853,3.394c8.839,4.868,17.431,10.182,26.198,15.185c9.863,5.629,19.861,11.021,29.711,16.674
		c13.416,7.699,26.768,15.509,40.107,23.341c11.418,6.704,22.309,14.548,34.307,19.944c10.163,4.57,12.216,13.747,16.232,21.829
		c5.742,11.556,10.363,23.664,15.629,35.462c7.618,17.069,15.558,33.997,22.946,51.164c1.566,3.638,1.947,8.059,1.849,12.095
		c-0.493,20.311-1.266,40.616-2.06,60.918c-0.587,15.021-1.022,30.062-2.263,45.033c-0.351,4.232-2.946,8.446-5.123,12.326
		c-6.078,10.831-12.479,21.481-18.746,32.206c-8.283,14.174-16.547,28.36-24.848,42.524c-2.795,4.769-5.32,9.758-8.642,14.134
		c-2.305,3.036-5.561,5.492-8.752,7.68c-5.035,3.453-10.442,6.357-15.565,9.688c-7.114,4.625-14.061,9.508-21.175,14.133
		c-5.757,3.742-11.723,7.163-17.474,10.914c-7.682,5.011-15.223,10.239-22.868,15.309c-5.209,3.454-10.528,6.742-15.733,10.202
		c-9.345,6.212-18.63,12.513-27.974,18.726c-0.82,0.545-1.944,1.112-2.836,0.993c-6.039-0.804-12.041-1.88-18.08-2.684
		c-3.644-0.485-7.333-0.627-11-0.945c-15.872-1.38-31.755-2.65-47.609-4.221c-4.98-0.494-9.844-2.14-14.823-2.67
		c-11.238-1.198-22.526-1.929-33.774-3.041c-8.916-0.881-17.816-1.945-26.7-3.108c-12.176-1.595-24.578-2.378-36.409-5.38
		c-8.688-2.205-16.624-7.389-24.869-11.301c-1.694-0.804-3.239-1.918-4.909-2.779c-7.698-3.97-15.432-7.871-23.123-11.855
		c-10.258-5.315-20.496-10.668-30.727-16.034c-8.99-4.715-18.007-9.381-26.926-14.226c-13.485-7.326-26.784-15.005-40.407-22.062
		c-4.073-2.11-6.044-4.579-7.232-8.999c-4.661-17.336-9.956-34.501-14.809-51.788c-3.146-11.209-5.839-22.545-8.903-33.779
		c-4.8-17.594-9.778-35.14-14.604-52.727c-1.409-5.136-1.7-9.893,0.654-15.334c8.559-19.786,16.296-39.927,24.428-59.899
		c6.037-14.827,12.219-29.595,18.315-44.399c5.649-13.718,11.245-27.459,16.944-41.156c0.527-1.267,1.388-2.674,2.499-3.373
		c6.476-4.076,13.179-7.796,19.605-11.947c9.206-5.947,18.16-12.284,27.373-18.219c6.655-4.287,13.581-8.15,20.342-12.273
		c9.854-6.009,19.757-11.946,29.478-18.164c10.054-6.432,19.77-13.404,29.952-19.62c3.067-1.873,7.181-2.749,10.838-2.814
		C248.486,72.805,264.931,72.97,281.373,72.969z M463.579,324.196c-8.828-4.665-16.715-8.842-24.611-13.002
		c-5.035-2.653-10.127-5.201-15.117-7.937c-6.355-3.484-12.745-6.924-18.914-10.719c-7.925-4.874-17.043-5.192-25.718-6.959
		c-16.167-3.292-32.416-6.313-48.751-8.592c-10.122-1.412-20.402-5.525-30.735-0.467c-2.403,1.176-4.977,2.071-7.554,2.81
		c-10.151,2.912-20.482,5.277-30.462,8.678c-9.026,3.076-19.082,2.745-27.171,9.157c-5.686,4.508-12.3,7.849-18.52,11.677
		c-1.187,0.731-2.472,1.303-4.188,2.197c4.27,2.81,6.92,4.421,9.427,6.23c5.401,3.896,10.759,7.854,16.079,11.861
		c6.086,4.583,11.865,9.627,18.241,13.757c5.264,3.409,10.075,7.933,16.834,8.64c12.02,1.257,24.037,2.556,36.029,4.048
		c8.287,1.031,16.516,2.524,24.798,3.604c5.688,0.742,11.432,1.051,17.134,1.702c5.252,0.6,10.464,1.628,15.727,2.041
		c4.79,0.376,9.976,1.325,14.363-0.018c7.641-2.339,14.845-6.152,22.152-9.522c9.021-4.161,17.891-8.653,26.954-12.717
		c8.815-3.953,17.842-7.429,26.663-11.37C458.7,328.195,460.76,326.193,463.579,324.196z M313.837,472.764
		c-0.815-3.037-1.126-4.86-1.787-6.545c-2.672-6.819-5.394-13.62-8.207-20.382c-3.438-8.264-6.955-16.495-10.492-24.716
		c-5.623-13.069-11.306-26.113-16.934-39.18c-2.796-6.491-5.489-13.026-8.301-19.51c-1.353-3.119-3.465-3.28-5.908-1.171
		c-3.532,3.049-6.973,6.206-10.564,9.182c-6.514,5.397-13.126,10.677-19.668,16.041c-4.527,3.711-9.09,7.386-13.488,11.246
		c-7.204,6.322-14.196,12.888-21.455,19.144c-4.644,4.002-9.647,7.582-14.415,11.444c-2.976,2.411-5.814,4.993-8.949,7.701
		c3.066,1.194,5.65,2.469,8.379,3.216c11.978,3.282,23.966,6.538,36.014,9.549c7.418,1.854,15.012,3.007,22.418,4.904
		c13.025,3.337,25.933,7.126,38.954,10.48c6.684,1.722,13.537,2.781,20.254,4.391C304.071,469.61,308.349,471.114,313.837,472.764z
		 M415.978,561.796c15.074-36.888,29.908-73.19,45.168-110.533c-2.926,0.179-4.226,0.105-5.459,0.36
		c-5.588,1.156-11.139,2.501-16.737,3.603c-13.489,2.655-26.996,5.215-40.497,7.81c-15.857,3.048-31.702,6.16-47.577,9.112
		c-8.248,1.534-16.555,2.751-24.82,4.205c-1.067,0.188-2.037,0.933-3.051,1.42c0.622,1.068,1.031,2.367,1.898,3.169
		c8.272,7.656,16.557,15.3,24.966,22.803c9.158,8.171,18.472,16.167,27.681,24.281c9.219,8.123,18.381,16.31,27.592,24.442
		C408.424,555.365,411.775,558.182,415.978,561.796z M73.507,324.257c30.237,36.194,60.237,71.542,91.133,106.119
		c0.695-0.187,1.389-0.374,2.084-0.561c4.266-44.143,8.533-88.286,12.872-133.182c-7.261,1.5-13.205,2.406-18.964,3.985
		c-12.126,3.324-24.1,7.203-36.237,10.484C107.955,315.547,91.421,319.645,73.507,324.257z M407.337,561.78
		c0.371-0.412,0.742-0.825,1.114-1.237c-1.738-1.458-3.507-2.882-5.21-4.38c-5.276-4.64-10.556-9.277-15.781-13.973
		c-7.08-6.363-14.021-12.882-21.188-19.146c-7.72-6.747-15.687-13.21-23.431-19.931c-3.29-2.855-6.194-6.153-9.438-9.066
		c-4.909-4.41-9.962-8.66-14.954-12.979c-2.016-1.744-3.682-1.462-5.789,0.258c-7.688,6.278-15.554,12.337-23.367,18.461
		c-8.695,6.816-17.356,13.677-26.127,20.395c-5.12,3.921-10.502,7.5-15.621,11.421c-3.787,2.901-7.341,6.106-11.598,9.679
		c2.133,0.738,3.763,1.645,5.474,1.838c11.87,1.339,23.778,2.363,35.632,3.822c9.3,1.145,18.514,2.998,27.816,4.12
		c9.488,1.144,19.058,1.591,28.555,2.679c15.111,1.73,30.174,3.877,45.287,5.58C388.225,560.393,397.793,560.977,407.337,561.78z
		 M459.787,446.317c-0.897-1.276-1.568-2.67-2.62-3.659c-9.049-8.511-18.18-16.934-27.259-25.413
		c-7.671-7.163-15.288-14.384-22.96-21.546c-7.899-7.373-15.899-14.64-23.725-22.09c-2.944-2.803-3.977-2.623-6.03,1.168
		c-4.609,8.51-9.306,16.975-14.141,25.358c-5.644,9.784-11.546,19.419-17.204,29.195c-7.11,12.285-14.086,24.647-21.123,36.975
		c-0.978,1.714-1.973,3.419-3.591,6.22C367.861,463.692,413.339,455.096,459.787,446.317z M174.565,442.181
		c-0.283,0.398-0.566,0.795-0.849,1.193c0.806,1.691,1.498,3.449,2.44,5.061c2.595,4.438,5.412,8.749,7.928,13.23
		c4.945,8.81,9.654,17.753,14.629,26.546c5.638,9.966,11.526,19.79,17.176,29.75c3.406,6.004,6.484,12.192,9.866,18.21
		c1.714,3.05,3.951,4.264,7.041,1.285c2.198-2.12,4.619-4.031,7.068-5.864c11.347-8.488,22.781-16.86,34.097-25.388
		c6.308-4.754,12.444-9.736,18.664-14.607c4.977-3.897,10.002-7.735,14.915-11.711c1.005-0.813,1.608-2.123,2.526-3.383
		C264.478,464.955,219.522,453.568,174.565,442.181z M263.738,354.187c-4.963-3.582-9.107-6.559-13.237-9.556
		c-13.33-9.674-26.693-19.303-39.964-29.057c-6.348-4.666-12.449-9.666-18.804-14.322c-2.162-1.584-4.757-2.576-7.441-3.989
		c-4.505,45.342-10.064,89.37-12.822,133.65c0.426,0.229,0.852,0.459,1.277,0.689C202.846,405.994,232.944,380.387,263.738,354.187z
		 M162.015,437.064c0.086-0.609,0.173-1.218,0.259-1.826c-30.136-35.05-60.273-70.1-90.989-105.825
		c-0.281,1.648-0.478,2.193-0.449,2.725c0.918,16.608,2.047,33.208,2.75,49.825c1.03,24.333,1.777,48.678,2.597,73.02
		c0.166,4.918,1.131,5.837,5.842,4.703c5.015-1.207,10.025-2.453,14.984-3.865c14.309-4.075,28.591-8.245,42.884-12.375
		C147.267,441.317,154.641,439.192,162.015,437.064z M375.541,368.873c-18.664-2.255-35.841-4.255-52.996-6.423
		c-17.151-2.168-34.28-4.504-51.419-6.766c-0.345,0.445-0.691,0.89-1.036,1.336c15.674,36.601,31.348,73.202,47.022,109.803
		c0.669,0.154,1.338,0.308,2.007,0.463C338.875,435.66,356.33,402.696,375.541,368.873z M73.34,318.469
		c0.332,0.311,0.663,0.621,0.995,0.932c1.774-0.817,3.473-1.921,5.333-2.405c14.321-3.72,28.668-7.341,43.019-10.944
		c4.27-1.072,8.622-1.831,12.86-3.008c13.37-3.713,26.688-7.614,40.064-11.303c2.751-0.759,3.635-1.477,2.269-4.519
		c-4.747-10.575-9.052-21.346-13.686-31.973c-6.592-15.118-13.299-30.185-20.027-45.242c-0.971-2.174-2.332-4.174-3.995-7.104
		C117.535,242.048,95.437,280.259,73.34,318.469z M541.24,481c-2.245-1.626-3.907-3.286-5.91-4.192
		c-5.72-2.586-11.538-4.968-17.391-7.241c-10.928-4.243-21.92-8.319-32.857-12.541c-2.686-1.037-5.198-2.532-7.895-3.533
		c-10.044-3.731-10.783-6.471-14.997,5.303c-5.495,15.355-11.547,30.519-17.65,45.648c-6.872,17.037-14.073,33.942-21.099,50.917
		c-0.237,0.573-0.138,1.286-0.268,2.734c8.643-5.209,16.824-9.763,24.603-14.924c9.232-6.125,18.042-12.883,27.179-19.157
		c7.518-5.163,15.205-10.084,22.889-14.998c8.985-5.746,18.087-11.309,27.064-17.067C530.425,488.411,535.802,484.657,541.24,481z
		 M220.606,538.077c0.319-0.296,0.639-0.591,0.958-0.887c-6.045-10.568-12.072-21.146-18.142-31.7
		c-4.976-8.651-10.119-17.209-14.98-25.924c-6.558-11.758-12.869-23.654-19.399-35.428c-1.44-2.597-3.461-3.462-6.688-2.107
		c-5.084,2.134-10.405,3.754-15.714,5.286c-11.648,3.362-23.342,6.568-35.036,9.77c-9.371,2.566-18.769,5.032-29.102,7.796
		c6.759,3.469,12.514,6.273,18.126,9.338c8.278,4.522,16.368,9.392,24.696,13.815c8.671,4.604,17.585,8.748,26.294,13.284
		c11.754,6.121,23.426,12.399,35.105,18.663c4.243,2.276,8.36,4.787,12.613,7.044C206.392,530.774,213.512,534.401,220.606,538.077z
		 M382.566,367.792c27.311,25.421,53.406,49.71,80.287,74.731c0.399-7.083,1.008-12.811,0.976-18.536
		c-0.047-8.412-0.705-16.819-0.833-25.232c-0.294-19.477-0.402-38.957-0.654-58.435c-0.031-2.426-0.479-4.847-0.819-8.071
		C435.001,344.188,409.302,355.756,382.566,367.792z M540.073,373.183c0.446,0.033,0.893,0.066,1.339,0.099
		c20.419-35.107,40.838-70.214,61.257-105.32c-0.262-0.393-0.524-0.785-0.785-1.178c-8.425,1.457-16.803,3.321-25.284,4.288
		c-18.147,2.07-36.34,3.761-54.533,5.389c-2.979,0.267-4.047,1.156-3.443,4.027c1.089,5.18,2.04,10.392,3.25,15.543
		c4.1,17.452,8.304,34.879,12.436,52.324C536.268,356.622,538.154,364.907,540.073,373.183z M262.782,189.074
		c3.337,0,6.11,0.2,8.845-0.035c12.163-1.044,24.321-2.153,36.47-3.351c14.957-1.475,29.903-3.06,44.854-4.602
		c2.836-0.292,5.671-0.604,9.488-1.011c-19.104-24.404-37.6-48.03-56.544-72.229C291.415,135.128,277.287,161.744,262.782,189.074z
		 M466.956,441.707c0.508,0.12,1.017,0.241,1.525,0.361c5.516-4.95,11.017-9.916,16.551-14.845
		c9.073-8.082,18.174-16.13,27.248-24.21c7.221-6.43,14.412-12.893,21.631-19.325c2.026-1.805,3.232-3.319,0.059-5.414
		c-6.624-4.374-13.011-9.107-19.595-13.545c-7.847-5.289-15.744-10.509-23.721-15.599c-7.903-5.043-15.933-9.887-23.699-14.69
		C466.956,370.147,466.956,405.927,466.956,441.707z M362.994,186.809c-0.156-0.493-0.313-0.985-0.469-1.478
		c-33.151,3.225-66.302,6.451-100.206,9.749c5.283,8.126,9.887,15.413,14.703,22.557c4.587,6.804,9.526,13.372,14.071,20.203
		c5.439,8.175,10.583,16.545,15.945,24.772c1.495,2.293,3.339,2.224,4.919-0.029c3.193-4.554,6.328-9.147,9.494-13.719
		c2.418-3.491,4.941-6.912,7.253-10.47c5.986-9.215,11.774-18.56,17.845-27.717C351.889,202.625,357.503,194.758,362.994,186.809z
		 M395.037,283.376c-9.386-31.705-18.393-62.128-27.399-92.55c-0.606-0.038-1.212-0.076-1.817-0.114
		c-17.495,25.696-34.991,51.392-53.391,78.416C340.157,274.558,366.865,278.79,395.037,283.376z M601.142,263.081
		c0.258-0.462,0.515-0.925,0.772-1.387c-27.353-24.37-54.706-48.74-82.88-73.842c-0.246,2.687-0.528,4.352-0.531,6.018
		c-0.034,15.104,0.1,30.21-0.062,45.312c-0.106,9.841-0.576,19.679-0.977,29.515c-0.144,3.533,1.417,4.811,5.295,4.201
		c8.174-1.286,16.333-2.719,24.546-3.686c13.151-1.548,26.345-2.719,39.51-4.147C591.606,264.546,596.367,263.75,601.142,263.081z
		 M420.859,123.938c-2.363-0.58-3.489-0.947-4.644-1.125c-11.822-1.824-23.636-3.7-35.477-5.394
		c-9.607-1.374-19.272-2.359-28.866-3.817c-7.356-1.118-14.618-2.842-21.964-4.037c-5.834-0.949-11.732-1.506-18.58-2.358
		c10.162,13.303,19.54,25.618,28.961,37.9c7.843,10.226,15.765,20.392,23.594,30.628c2.823,3.691,4.886,3.895,8.053,0.452
		c4.058-4.412,8.016-8.918,12.117-13.288c7.225-7.698,14.513-15.338,21.803-22.975c3.646-3.819,7.374-7.56,11.023-11.376
		C418.124,127.248,419.24,125.824,420.859,123.938z M97.08,163.968c-7.897,47.728-15.664,94.664-23.63,142.811
		c1.481-1.709,2.262-2.379,2.757-3.217c4.322-7.326,8.527-14.722,12.894-22.021c6.769-11.314,13.803-22.473,20.426-33.871
		c9.061-15.595,17.895-31.324,26.644-47.096c0.711-1.281,0.727-4.142-0.14-4.913c-6.643-5.908-13.539-11.538-20.45-17.139
		C109.935,173.945,104.161,169.527,97.08,163.968z M198.462,145.74c3.096,2.695,5.349,4.973,7.911,6.823
		c6.283,4.538,12.781,8.777,19.059,13.321c9.545,6.909,18.984,13.964,28.453,20.977c2.809,2.081,4.497,1.05,5.881-1.783
		c1.994-4.08,4.13-8.093,6.278-12.096c9.496-17.7,19.022-35.384,28.527-53.079c1.978-3.682,3.912-7.386,6.352-11.999
		c-2.642,0.715-4.342,1.018-5.924,1.628c-9.466,3.648-18.876,7.443-28.365,11.028c-4.393,1.66-8.992,2.775-13.375,4.458
		c-10.041,3.856-19.963,8.02-30.014,11.849C215.208,139.929,207.052,142.678,198.462,145.74z M606.362,272.142
		c-0.399-0.068-0.798-0.135-1.198-0.203c-20.341,35.203-40.682,70.406-61.591,106.592c7.708,0,14.102-0.088,20.494,0.019
		c11.669,0.195,23.336,0.611,35.004,0.606c1.201-0.001,3.37-2.169,3.449-3.434c0.708-11.284,1.13-22.589,1.473-33.892
		c0.43-14.156,0.619-28.319,1.085-42.473c0.218-6.625,0.886-13.234,1.261-19.855C606.479,277.057,606.362,274.596,606.362,272.142z
		 M448.952,219.234c-26.248-11.038-51.266-21.558-76.283-32.079c-0.416,0.417-0.833,0.833-1.249,1.25
		c9.009,30.31,18.019,60.621,27.028,90.931c0.534,0.159,1.068,0.318,1.602,0.477C416.115,259.913,432.18,240.012,448.952,219.234z
		 M537.372,386.352c-22.447,20.429-44.598,39.554-66.471,60.027c11.316,4.501,21.334,8.481,31.348,12.47
		c12.858,5.122,25.722,10.231,38.563,15.397c2.16,0.869,3.683,1.282,3.438-2c-1.599-21.441-3.1-42.889-4.734-64.328
		C538.995,401.068,538.167,394.242,537.372,386.352z M453.041,216.34c2.004-1.66,2.689-2.439,3.545-2.904
		c10.345-5.623,20.692-11.243,31.086-16.774c7.229-3.847,14.543-7.533,21.785-11.356c0.941-0.497,2.475-1.624,2.349-2.044
		c-0.331-1.102-1.247-2.267-2.252-2.881c-2.74-1.675-5.784-2.869-8.458-4.632c-6.312-4.163-12.42-8.635-18.722-12.814
		c-5.862-3.886-11.971-7.404-17.79-11.352c-9.645-6.545-19.122-13.336-28.724-19.943c-1.606-1.105-3.491-1.804-6.144-3.144
		C437.59,158.15,445.197,186.799,453.041,216.34z M425.164,128.324c-0.822-0.496-1.644-0.992-2.466-1.488
		c-3.184,4.008-6.144,8.222-9.602,11.977c-5.551,6.028-11.504,11.684-17.155,17.622c-7.244,7.612-14.326,15.379-21.55,23.009
		c-2.024,2.138-1.786,3.477,0.93,4.553c6.771,2.682,13.514,5.433,20.282,8.122c9.818,3.901,19.662,7.738,29.465,11.677
		c2.55,1.025,4.945,2.436,7.49,3.476c4.647,1.899,9.353,3.654,15.222,5.93C439.988,183.96,432.576,156.142,425.164,128.324z
		 M514.468,280.131c-1.83,1.64-2.61,2.284-3.327,2.99c-8.037,7.91-16.065,15.83-24.095,23.748
		c-6.047,5.964-12.13,11.892-18.121,17.912c-2.248,2.26-2.849,4.336,0.839,6.112c2.33,1.122,4.269,3.033,6.459,4.473
		c14.681,9.651,29.381,19.276,44.081,28.899c4.452,2.915,8.925,5.798,13.388,8.696c0.489-0.328,0.978-0.656,1.466-0.985
		C529.378,341.467,521.21,311.486,514.468,280.131z M297.938,103.835c-1.541-1.291-2.421-2.496-3.59-2.937
		c-14.905-5.62-29.862-11.1-44.782-16.683c-5.715-2.138-11.313-4.606-17.09-6.546c-1.23-0.413-3.469,0.374-4.433,1.382
		c-1.576,1.649-2.618,3.868-3.657,5.96c-4.825,9.707-9.581,19.448-14.345,29.185c-4.111,8.404-8.2,16.819-12.938,26.543
		c9.969-3.519,18.677-6.431,27.264-9.664c12.705-4.783,25.272-9.935,37.996-14.664C273.886,112.128,285.542,108.201,297.938,103.835
		z M259.645,199.85c-5.864,29.923-11.465,58.497-17.349,88.523c4.258-1.406,7.297-2.519,10.4-3.412
		c9.034-2.601,18.082-5.156,27.146-7.649c6.682-1.838,13.397-3.552,20.099-5.317c4.53-1.193,5.781-3.125,3.718-6.326
		c-6.739-10.462-13.612-20.838-20.44-31.243c-4.649-7.085-9.245-14.205-13.986-21.228
		C266.406,209.011,263.346,204.983,259.645,199.85z M188.941,235.73c3.867,3.585,7.298,6.49,10.412,9.704
		c11.706,12.083,23.271,24.304,34.976,36.388c2.984,3.08,4.605,2.562,5.531-1.694c0.972-4.466,1.586-9.009,2.431-13.504
		c3.829-20.364,7.7-40.721,11.51-61.088c0.485-2.595,0.705-5.24,1.133-8.523C232.767,210.019,211.446,222.527,188.941,235.73z
		 M599.646,385.083c-4.891-0.258-8.78-0.554-12.673-0.649c-8.071-0.197-16.146-0.241-24.218-0.435
		c-5.861-0.141-11.718-0.423-17.578-0.638c-2.398-0.088-3.557,0.919-3.329,3.464c0.499,5.576,0.893,11.162,1.329,16.743
		c1.338,17.155,2.644,34.313,4.031,51.465c0.392,4.843,1.021,9.666,1.54,14.498c0.478,0.082,0.955,0.165,1.433,0.247
		C566.458,441.909,582.734,414.04,599.646,385.083z M253.701,192.318c-19.639-14.234-38.483-27.893-58.369-42.307
		c-2.558,27.283-4.967,52.979-7.376,78.676c0.407,0.321,0.814,0.643,1.222,0.964C210.669,218.402,230.885,204.887,253.701,192.318z
		 M220.564,83.423c-0.327-0.219-0.655-0.437-0.982-0.656c-4.097,2.534-8.198,5.06-12.289,7.604
		c-9.662,6.009-19.306,12.047-28.983,18.032c-5.081,3.143-10.307,6.059-15.306,9.325c-9.505,6.21-18.826,12.703-28.353,18.879
		c-8.877,5.755-17.921,11.252-27.929,17.51c1.73,0,2.237,0.063,2.724-0.009c12.287-1.809,24.561-3.707,36.861-5.42
		c5.69-0.792,11.441-1.132,17.143-1.849c6.25-0.786,12.45-2.143,18.719-2.575c8.407-0.579,10.436-2.013,13.771-9.442
		c4.742-10.564,9.976-20.908,14.996-31.347C214.149,96.793,217.355,90.107,220.564,83.423z M90.387,177.491
		c-0.298-0.097-0.596-0.193-0.894-0.29c-0.803,2.237-1.523,4.509-2.423,6.707c-7.86,19.201-15.811,38.364-23.612,57.588
		c-5.03,12.395-9.786,24.901-14.791,37.306c-3.521,8.727-7.083,17.444-10.951,26.02c-2.619,5.806-2.37,6.37,3.734,8.011
		c6.595,1.773,13.084,3.973,19.547,6.196c3.461,1.191,5.572,0.11,6.273-3.704c0.636-3.457,1.334-6.903,1.923-10.368
		c1.95-11.459,3.875-22.922,5.786-34.387c2.221-13.326,4.437-26.654,6.615-39.987c1.068-6.54,1.986-13.105,3.076-19.641
		C86.532,199.783,88.477,188.64,90.387,177.491z M421.02,81.658c2.004,13.159,3.81,25.36,5.814,37.528
		c0.157,0.953,1.551,2.106,2.602,2.444c7.303,2.343,14.64,4.591,22.019,6.683c9.334,2.647,18.699,5.189,28.085,7.646
		c16.859,4.415,33.754,8.696,50.611,13.117c4.532,1.188,8.985,2.678,13.474,4.029c0.185-0.415,0.371-0.829,0.556-1.244
		C503.436,128.637,462.691,105.412,421.02,81.658z M600.445,254.785c0.372-0.18,0.743-0.359,1.115-0.539
		c-13.733-30.35-27.466-60.7-41.414-91.525c-12.917,7.533-25.205,14.698-38.272,22.318
		C548.311,208.506,574.378,231.646,600.445,254.785z M489.99,273.182c0.574-0.055,1.149-0.11,1.723-0.165
		c6.989-27.62,13.979-55.239,21.052-83.192c-1.588,0-2.272-0.209-2.711,0.031c-5.866,3.207-11.679,6.513-17.543,9.723
		c-11.393,6.238-22.788,12.475-34.236,18.611c-2.689,1.441-2.627,3.331-1.3,5.44c1.934,3.072,4.118,5.985,6.125,9.013
		c5.014,7.564,9.971,15.166,14.983,22.731C482.027,261.327,486.019,267.248,489.99,273.182z M449.361,226.818
		c-1.758,1.458-2.775,2.056-3.469,2.915c-7.631,9.449-15.181,18.964-22.814,28.411c-6.533,8.086-13.178,16.082-19.703,24.174
		c-1.719,2.132-2.082,4.122,1.058,5.611c5.002,2.372,9.923,4.919,14.832,7.481c5.165,2.695,10.213,5.621,15.433,8.203
		c3.838,1.898,7.869,3.404,12.959,5.573C448.236,281.165,448.786,254.593,449.361,226.818z M236.277,289.973
		c-16.478-16.801-32.312-32.945-48.791-49.746c-0.732,2.419-1.133,3.496-1.381,4.606c-1.481,6.621-2.761,13.294-4.458,19.859
		c-0.814,3.15-2.395,6.102-3.629,9.143c-0.332,1.574,0.277,3.732,1.341,5.634c2.769,4.95,3.217,11.1,9.351,14.304
		c5.07,2.648,9.318,6.886,13.883,10.48c3.613,2.845,6.889,3.562,11.103,0.495C220.638,299.699,228.052,295.301,236.277,289.973z
		 M422.223,118.449c-1.876-12.611-3.504-23.677-5.183-34.735c-0.342-2.256-1.656-2.756-3.868-2.188
		c-8.204,2.106-16.439,4.094-24.68,6.052c-11.573,2.749-23.129,5.577-34.753,8.095c-9.635,2.087-19.364,3.733-29.03,5.682
		c-1.322,0.266-2.518,1.154-3.773,1.754c0.112,0.336,0.225,0.671,0.337,1.007C354.649,108.855,388.025,113.594,422.223,118.449z
		 M247.009,77.636c0.019,0.295,0.039,0.59,0.058,0.885c7.567,3.024,15.086,6.174,22.711,9.041
		c10.687,4.018,21.37,8.086,32.235,11.571c3.446,1.105,7.617,1.139,11.2,0.409c11.777-2.402,23.425-5.428,35.144-8.122
		c10.242-2.355,20.524-4.536,30.766-6.889c6.279-1.443,12.517-3.065,18.773-4.607c-12.437-0.73-24.724-0.634-37.008-0.802
		c-2.797-0.038-5.568-1.296-8.377-1.427c-2.635-0.123-5.303,0.511-7.959,0.793c-1.082,0.115-2.204,0.392-3.247,0.223
		c-1.783-0.289-3.518-1.266-5.275-1.271c-28.143-0.083-56.286-0.062-84.428-0.046C250.071,77.394,248.54,77.551,247.009,77.636z
		 M36.867,316.126c-0.307,0.402-0.613,0.804-0.92,1.206c11.396,41.155,22.792,82.311,34.187,123.466
		c0.591-7.832,0.873-15.533,0.536-23.207c-0.872-19.873-2.036-39.732-3.044-59.599c-0.522-10.295-0.865-20.601-1.562-30.883
		c-0.084-1.239-1.668-2.988-2.928-3.422c-4.005-1.378-8.207-2.171-12.292-3.332C46.162,319.025,41.524,317.543,36.867,316.126z
		 M554.552,160.635c-3.651-1.206-6.781-2.362-9.98-3.272c-9.389-2.672-18.792-5.297-28.216-7.846
		c-11.4-3.083-22.811-6.126-34.246-9.076c-7.696-1.985-15.477-3.644-23.151-5.705c-5.856-1.573-11.605-3.548-17.401-5.345
		c10.379,8.144,21.033,15.432,31.782,22.575c9.61,6.387,19.339,12.594,28.989,18.922c3.038,1.993,6.073,4.009,8.959,6.211
		c4.409,3.364,8.723,4.393,13.753,1.044c4.38-2.916,9.138-5.257,13.677-7.94C543.855,167.169,548.934,164.036,554.552,160.635z
		 M102.061,160.176c0.709,1.385,0.843,2.011,1.229,2.347c5.282,4.592,10.576,9.169,15.913,13.697
		c5.885,4.994,11.804,9.948,17.734,14.889c2.145,1.787,4.436,2.397,6.689,0.199c4.686-4.574,9.328-9.192,13.981-13.8
		c6.02-5.96,12.056-11.904,18.04-17.901c3.433-3.441,6.775-6.973,10.158-10.464c-0.207-0.255-0.414-0.511-0.621-0.766
		C157.724,152.274,130.265,156.172,102.061,160.176z M190.352,153.319c-0.412-0.198-0.825-0.396-1.237-0.594
		c-14.219,14.971-28.438,29.941-43.129,45.409c11.198,9.347,23.73,19.807,36.262,30.267c0.451-0.212,0.902-0.424,1.353-0.637
		C185.851,202.949,188.101,178.134,190.352,153.319z M454.52,227.987c-0.359,0.186-0.718,0.371-1.077,0.557
		c-0.567,26.517-1.134,53.033-1.717,80.31c2.129-1.295,3.594-1.971,4.806-2.957c9.507-7.739,18.932-15.578,28.46-23.29
		c2.415-1.954,2.744-4.102,1.258-6.587c-1.717-2.871-3.605-5.641-5.422-8.453c-6.595-10.204-13.153-20.433-19.811-30.597
		C458.994,233.883,456.693,230.976,454.52,227.987z M497.042,290.29c4.232-4.288,8.162-7.981,11.726-11.997
		c1.894-2.135,4.288-4.736,4.503-7.291c0.823-9.802,0.958-19.669,1.151-29.516c0.153-7.829,0.016-15.663,0.01-23.495
		c-0.003-4.733-0.001-9.466-0.001-14.199c-1.398,1.892-1.591,3.895-2.101,5.814c-5.746,21.596-11.464,43.2-17.375,64.751
		C493.493,279.689,494.58,284.461,497.042,290.29z M174.281,267.71c0.498-0.046,0.995-0.092,1.493-0.137
		c2.109-9.416,4.383-18.801,6.189-28.275c0.364-1.908-0.387-4.861-1.746-6.121c-6.09-5.646-12.576-10.868-18.94-16.217
		c-4.037-3.394-8.112-6.743-12.17-10.112c-0.368,0.335-0.736,0.67-1.104,1.006C156.762,227.805,165.522,247.758,174.281,267.71z
		 M465.562,321.796c0.471-0.356,1.237-0.818,1.861-1.426c8.255-8.043,16.5-16.096,24.72-24.175
		c1.665-1.636,0.416-9.603-1.734-10.508c-0.713-0.3-2.032,0.043-2.705,0.566c-9.821,7.638-19.603,15.326-29.327,23.087
		c-1.507,1.203-2.679,2.826-4.079,4.332C458.1,316.414,461.588,318.93,465.562,321.796z"/>
</g>
<linearGradient id="SVGID_1_" gradientUnits="userSpaceOnUse" x1="293.0055" y1="202.485" x2="469.7874" y2="202.485">
	<stop  offset="0" style="stop-color:#4662AD"/>
	<stop  offset="0.5213" style="stop-color:#F4F4FA"/>
	<stop  offset="1" style="stop-color:#DF298C"/>
</linearGradient>
<polyline fill="none" stroke="url(#SVGID_1_)" stroke-width="10" stroke-miterlimit="10" points="416.717,76.124 424.478,122.581 
	304.623,103.5 366.094,183.5 449.361,216.34 449.818,313.774 466.956,325.549 "/>
</svg>
