<svg width="39" height="94" viewBox="0 0 39 94" version="1.1" xmlns="http://www.w3.org/2000/svg" xmlns:xlink="http://www.w3.org/1999/xlink">
<title>qm</title>
<desc>Created using Figma</desc>
<g id="Canvas" transform="translate(-26697 -7652)">
<g id="qm">
<g id="Vector 9">
<use xlink:href="#path0_stroke" transform="translate(26701.6 7656.06)" fill="#FF6363"/>
</g>
<g id="Vector 10">
<use xlink:href="#path1_fill" transform="matrix(-0.829229 -0.558909 0.558909 -0.829229 26708.4 7743.03)" fill="#FF6363"/>
<use xlink:href="#path2_stroke" transform="matrix(-0.829229 -0.558909 0.558909 -0.829229 26708.4 7743.03)" fill="#FF6363"/>
</g>
</g>
</g>
<defs>
<path id="path0_stroke" d="M -3.51962 9.80592C -4.56929 11.7497 -3.84443 14.1765 -1.9006 15.2261C 0.0432376 16.2758 2.46995 15.5509 3.51962 13.6071L -3.51962 9.80592ZM 30.025 8.99667L 26.0514 9.45517L 30.025 8.99667ZM 18.1559 45.6879L 21.4464 47.9622L 21.4464 47.9622L 18.1559 45.6879ZM 3.80434 62.4347C 3.80434 64.6439 5.5952 66.4347 7.80434 66.4347C 10.0135 66.4347 11.8043 64.6439 11.8043 62.4347L 3.80434 62.4347ZM 3.51962 13.6071C 6.89834 7.35022 12.8708 4 20.378 4L 20.378 -4C 10.2121 -4 1.38445 0.724296 -3.51962 9.80592L 3.51962 13.6071ZM 20.378 4C 22.6633 4 23.7858 4.55986 24.4051 5.1401C 25.0585 5.75223 25.7635 6.95991 26.0514 9.45517L 33.9987 8.53817C 33.5859 4.96073 32.4023 1.67007 29.8748 -0.697958C 27.3132 -3.09787 23.9626 -4 20.378 -4L 20.378 4ZM 26.0514 9.45517C 27.6119 22.9796 23.1722 31.3952 14.8654 43.4136L 21.4464 47.9622C 30.0546 35.5078 35.9025 25.0377 33.9987 8.53817L 26.0514 9.45517ZM 14.8654 43.4136C 13.5402 45.3532 11.0124 47.9829 8.66246 51.0532C 6.43826 53.9691 3.80434 58.0073 3.80434 62.4347L 11.8043 62.4347C 11.8043 60.9219 12.8298 58.7806 15.0232 55.9051C 17.0909 53.1841 19.7389 50.4105 21.4464 47.9622L 14.8654 43.4136Z"/>
<path id="path1_fill" d="M 4.72222 4.47222C 3.18422 4.75186 0 4.33572 0 2.5L 5.5 0C 6.32875 1.6575 8.06892 3.86373 4.72222 4.47222Z"/>
<path id="path2_stroke" d="M 0 2.5L -0.827606 0.679267C -1.54159 1.00381 -2 1.71571 -2 2.5L 0 2.5ZM 4.72222 4.47222L 5.07999 6.43996L 5.07999 6.43996L 4.72222 4.47222ZM 5.5 0L 7.28885 -0.894427C 6.80776 -1.85662 5.65173 -2.26589 4.67239 -1.82073L 5.5 0ZM -2 2.5C -2 4.85849 0.0708439 5.85101 1.20601 6.19392C 2.50217 6.58547 4.00374 6.63564 5.07999 6.43996L 4.36445 2.50448C 3.9027 2.58844 3.04315 2.57036 2.3627 2.36482C 2.02966 2.26421 1.88971 2.16274 1.86581 2.14105C 1.82347 2.11204 1.95534 2.25665 1.94082 2.25353C 1.9482 2.24244 2.01386 2.50556 2 2.5L -2 2.5ZM 5.07999 6.43996C 6.09632 6.25517 7.1174 5.88921 7.84013 5.10818C 8.65271 4.23004 8.77695 3.18037 8.65646 2.34423C 8.54331 1.67508 8.2403 0.920023 7.98331 0.409551C 7.72626 -0.096246 7.46439 -0.540742 7.28885 -0.894427L 3.71115 0.894427C 3.94999 1.36949 4.21642 1.82234 4.41415 2.2154C 4.62342 2.62901 4.6861 2.83668 4.69735 2.91475C 4.69997 2.9329 4.68685 2.86378 4.71691 2.74318C 4.75071 2.60756 4.82074 2.48169 4.90424 2.39146C 5.03789 2.24703 5.02147 2.38502 4.36445 2.50448L 5.07999 6.43996ZM 0.827606 4.32073L 6.32761 1.82073L 4.67239 -1.82073L -0.827606 0.679267L 0.827606 4.32073Z"/>
</defs>
</svg>
