<svg width="682" height="527" viewBox="0 0 682 527" version="1.1" xmlns="http://www.w3.org/2000/svg" xmlns:xlink="http://www.w3.org/1999/xlink">
<title>rootcause</title>
<desc>Created using Figma</desc>
<g id="Canvas" transform="translate(-931 -2198)">
<g id="rootcause">
<g id="Polygon">
<use xlink:href="#path0_fill" transform="matrix(-1 -1.38778e-16 1.38778e-16 -1 1665 2725)" fill="#FCCA8A"/>
</g>
<g id="No / Low Work">
<use xlink:href="#path1_fill" transform="translate(1203 2222)"/>
</g>
<g id="Group 23">
<g id="Polygon">
<use xlink:href="#path2_fill" transform="matrix(1 1.63132e-17 -1.63132e-17 1 1260 2590)" fill="#FFFFFF"/>
</g>
<g id="Polygon">
<use xlink:href="#path2_fill" transform="matrix(1 1.63132e-17 -1.63132e-17 1 1260 2550)" fill="#FFFFFF"/>
</g>
<g id="Polygon">
<use xlink:href="#path2_fill" transform="matrix(1 1.63132e-17 -1.63132e-17 1 1260 2510)" fill="#FFFFFF"/>
</g>
<g id="Polygon">
<use xlink:href="#path2_fill" transform="matrix(1 1.63132e-17 -1.63132e-17 1 1260 2470)" fill="#FFFFFF"/>
</g>
<g id="Polygon">
<use xlink:href="#path2_fill" transform="matrix(1 1.63132e-17 -1.63132e-17 1 1260 2430)" fill="#FFFFFF"/>
</g>
<g id="Polygon">
<use xlink:href="#path2_fill" transform="matrix(1 1.63132e-17 -1.63132e-17 1 1260 2390)" fill="#FFFFFF"/>
</g>
<g id="Polygon">
<use xlink:href="#path2_fill" transform="matrix(1 1.63132e-17 -1.63132e-17 1 1260 2350)" fill="#FFFFFF"/>
</g>
<g id="Polygon">
<use xlink:href="#path2_fill" transform="matrix(1 1.63132e-17 -1.63132e-17 1 1260 2310)" fill="#FFFFFF"/>
</g>
<g id="Polygon">
<use xlink:href="#path2_fill" transform="matrix(1 1.63132e-17 -1.63132e-17 1 1260 2270)" fill="#FFFFFF"/>
</g>
</g>
<g id="Group 21">
<g id="Uncertainty on Pricing">
<use xlink:href="#path3_fill" transform="translate(1353 2411)"/>
</g>
</g>
<g id="Group 19">
<g id="No Knowledge">
<use xlink:href="#path4_fill" transform="translate(1203 2642)"/>
</g>
</g>
<g id="Group 20">
<g id="Low Confidence">
<use xlink:href="#path5_fill" transform="translate(1088 2512)"/>
</g>
</g>
<g id="Group 20.1">
<g id="Fear of self-promotion">
<use xlink:href="#path6_fill" transform="translate(987 2323)"/>
</g>
</g>
<g id="Group 20.4">
<g id="Imposter Syndrome">
<use xlink:href="#path7_fill" transform="translate(1046 2411)"/>
</g>
</g>
<g id="Group 20.3">
<g id="Poor Communication">
<use xlink:href="#path8_fill" transform="translate(1333 2512)"/>
</g>
</g>
<g id="Group 20.2">
<g id="No sales strategy">
<use xlink:href="#path9_fill" transform="translate(1428 2323)"/>
</g>
</g>
</g>
</g>
<defs>
<path id="path0_fill" d="M 393 0L 733.348 526.5L 52.652 526.5L 393 0Z"/>
<path id="path1_fill" d="M 13.9743 20L 13.9743 5.7031L 10.7882 5.7031L 10.7882 14.3942L 5.42435 5.7031L 1.5527 5.7031L 1.5527 20L 4.71858 20L 4.71858 10.6032L 10.6067 20L 13.9743 20ZM 21.348 17.4794C 20.1986 17.4794 19.0895 16.6526 19.0895 14.9789C 19.0895 13.2851 20.1986 12.4987 21.348 12.4987C 22.5176 12.4987 23.6065 13.2851 23.6065 14.9789C 23.6065 16.6728 22.5176 17.4794 21.348 17.4794ZM 21.348 9.67558C 18.3636 9.67558 16.0245 11.8736 16.0245 14.9789C 16.0245 18.0843 18.3636 20.3025 21.348 20.3025C 24.3526 20.3025 26.6715 18.0843 26.6715 14.9789C 26.6715 11.8736 24.3526 9.67558 21.348 9.67558ZM 42.2375 5.42079L 39.4951 5.42079L 32.2559 20.2823L 34.9782 20.2823L 42.2375 5.42079ZM 58.1116 20L 58.1116 16.9551L 51.9411 16.9551L 51.9411 5.7031L 48.755 5.7031L 48.755 20L 58.1116 20ZM 64.6513 17.4794C 63.5019 17.4794 62.3928 16.6526 62.3928 14.9789C 62.3928 13.2851 63.5019 12.4987 64.6513 12.4987C 65.8208 12.4987 66.9097 13.2851 66.9097 14.9789C 66.9097 16.6728 65.8208 17.4794 64.6513 17.4794ZM 64.6513 9.67558C 61.6669 9.67558 59.3277 11.8736 59.3277 14.9789C 59.3277 18.0843 61.6669 20.3025 64.6513 20.3025C 67.6558 20.3025 69.9748 18.0843 69.9748 14.9789C 69.9748 11.8736 67.6558 9.67558 64.6513 9.67558ZM 77.3591 9.97806L 75.3829 15.9065L 73.7092 9.97806L 70.5232 9.97806L 73.6689 20L 76.7743 20L 78.9118 13.5271L 81.0896 20L 84.1345 20L 87.2399 9.97806L 84.2353 9.97806L 82.5616 15.9267L 80.6056 9.97806L 77.3591 9.97806ZM 107.58 14.8781L 104.616 5.7031L 101.349 5.7031L 98.3846 14.858L 96.0253 5.7031L 92.6376 5.7031L 96.5294 20L 99.8768 20L 102.942 10.5225L 105.987 20L 109.274 20L 113.165 5.7031L 109.899 5.7031L 107.58 14.8781ZM 118.51 17.4794C 117.36 17.4794 116.251 16.6526 116.251 14.9789C 116.251 13.2851 117.36 12.4987 118.51 12.4987C 119.679 12.4987 120.768 13.2851 120.768 14.9789C 120.768 16.6728 119.679 17.4794 118.51 17.4794ZM 118.51 9.67558C 115.525 9.67558 113.186 11.8736 113.186 14.9789C 113.186 18.0843 115.525 20.3025 118.51 20.3025C 121.514 20.3025 123.833 18.0843 123.833 14.9789C 123.833 11.8736 121.514 9.67558 118.51 9.67558ZM 132.178 9.97806C 131.977 9.91756 131.674 9.87723 131.372 9.87723C 130.565 9.87723 129.295 10.1999 128.77 11.3291L 128.77 9.97806L 125.806 9.97806L 125.806 20L 128.871 20L 128.871 15.6242C 128.871 13.6279 129.98 12.902 131.21 12.902C 131.513 12.902 131.835 12.9221 132.178 13.0028L 132.178 9.97806ZM 144.12 9.97806L 140.147 9.97806L 137.103 13.3456L 137.103 5.40063L 134.038 5.40063L 134.038 20L 137.103 20L 137.103 17.5399L 138.091 16.4711L 140.45 20L 144.201 20L 140.208 14.1925L 144.12 9.97806Z"/>
<path id="path2_fill" d="M 12 0L 22.3923 18L 1.6077 18L 12 0Z"/>
<path id="path3_fill" d="M 5.632 16.256C 8.128 16.256 10.128 14.752 10.128 11.904L 10.128 4.656L 7.6 4.656L 7.6 11.696C 7.6 13.072 6.832 13.76 5.632 13.76C 4.432 13.76 3.664 13.072 3.664 11.696L 3.664 4.656L 1.136 4.656L 1.136 11.904C 1.136 14.752 3.136 16.256 5.632 16.256ZM 14.6915 11.44C 14.6915 10.64 15.2035 10.048 16.0035 10.048C 16.8835 10.048 17.2995 10.64 17.2995 11.424L 17.2995 16L 19.7315 16L 19.7315 11.008C 19.7315 9.264 18.8355 7.84 16.8355 7.84C 16.0195 7.84 15.0435 8.208 14.6115 8.96L 14.6115 8.048L 12.2595 8.048L 12.2595 16L 14.6915 16L 14.6915 11.44ZM 25.4391 10.048C 26.3831 10.048 26.8631 10.624 27.0391 11.232L 29.2151 10.576C 28.8631 9.152 27.5831 7.808 25.3911 7.808C 23.0551 7.808 21.1991 9.552 21.1991 12.032C 21.1991 14.496 23.1031 16.24 25.4711 16.24C 27.5991 16.24 28.9111 14.864 29.2631 13.472L 27.1191 12.816C 26.9431 13.408 26.4151 14 25.4711 14C 24.4631 14 23.6151 13.296 23.6151 12.032C 23.6151 10.752 24.4311 10.048 25.4391 10.048ZM 32.5057 11.072C 32.5538 10.48 33.0658 9.728 34.0898 9.728C 35.2418 9.728 35.6578 10.464 35.6898 11.072L 32.5057 11.072ZM 35.8657 13.136C 35.6418 13.76 35.1457 14.176 34.2657 14.176C 33.3217 14.176 32.5057 13.536 32.4577 12.64L 37.9937 12.64C 38.0097 12.592 38.0418 12.224 38.0418 11.888C 38.0418 9.328 36.5217 7.808 34.0577 7.808C 31.9937 7.808 30.0897 9.44 30.0897 12C 30.0897 14.672 32.0418 16.24 34.2338 16.24C 36.2497 16.24 37.5138 15.088 37.8978 13.712L 35.8657 13.136ZM 44.6593 8.048C 44.4993 8 44.2593 7.968 44.0192 7.968C 43.3792 7.968 42.3712 8.224 41.9552 9.12L 41.9552 8.048L 39.6033 8.048L 39.6033 16L 42.0352 16L 42.0352 12.528C 42.0352 10.944 42.9153 10.368 43.8912 10.368C 44.1313 10.368 44.3873 10.384 44.6593 10.448L 44.6593 8.048ZM 49.3121 5.728L 47.1361 5.728L 47.1361 6.752C 47.1361 7.488 46.7361 8.048 45.9041 8.048L 45.5041 8.048L 45.5041 10.176L 46.9121 10.176L 46.9121 13.584C 46.9121 15.168 47.9201 16.144 49.5681 16.144C 50.3361 16.144 50.7361 15.968 50.8321 15.92L 50.8321 13.904C 50.6881 13.936 50.4481 13.984 50.1921 13.984C 49.6641 13.984 49.3121 13.808 49.3121 13.152L 49.3121 10.176L 50.8641 10.176L 50.8641 8.048L 49.3121 8.048L 49.3121 5.728ZM 52.1701 13.808C 52.1701 15.072 53.1781 16.224 54.9221 16.224C 55.9781 16.224 56.7461 15.776 57.1621 15.104C 57.1621 15.648 57.2261 15.936 57.2421 16L 59.4341 16C 59.4181 15.92 59.3381 15.392 59.3381 14.768L 59.3381 10.88C 59.3381 9.248 58.3941 7.808 55.8181 7.808C 53.4821 7.808 52.4261 9.312 52.3301 10.448L 54.4421 10.88C 54.4901 10.288 54.9541 9.712 55.8021 9.712C 56.5701 9.712 56.9701 10.112 56.9701 10.576C 56.9701 10.848 56.8261 11.056 56.3941 11.12L 54.5221 11.408C 53.2101 11.6 52.1701 12.4 52.1701 13.808ZM 55.5141 14.464C 54.8421 14.464 54.5701 14.064 54.5701 13.648C 54.5701 13.088 54.9541 12.848 55.4661 12.768L 56.9701 12.528L 56.9701 12.88C 56.9701 14.112 56.2341 14.464 55.5141 14.464ZM 63.8165 16L 63.8165 8.048L 61.3845 8.048L 61.3845 16L 63.8165 16ZM 61.1765 5.616C 61.1765 6.4 61.8165 7.04 62.5845 7.04C 63.3845 7.04 64.0245 6.4 64.0245 5.616C 64.0245 4.832 63.3845 4.192 62.5845 4.192C 61.8165 4.192 61.1765 4.832 61.1765 5.616ZM 68.379 11.44C 68.379 10.64 68.891 10.048 69.691 10.048C 70.571 10.048 70.987 10.64 70.987 11.424L 70.987 16L 73.419 16L 73.419 11.008C 73.419 9.264 72.523 7.84 70.523 7.84C 69.707 7.84 68.731 8.208 68.299 8.96L 68.299 8.048L 65.947 8.048L 65.947 16L 68.379 16L 68.379 11.44ZM 78.3746 5.728L 76.1986 5.728L 76.1986 6.752C 76.1986 7.488 75.7986 8.048 74.9666 8.048L 74.5666 8.048L 74.5666 10.176L 75.9746 10.176L 75.9746 13.584C 75.9746 15.168 76.9826 16.144 78.6306 16.144C 79.3986 16.144 79.7986 15.968 79.8946 15.92L 79.8946 13.904C 79.7506 13.936 79.5106 13.984 79.2546 13.984C 78.7266 13.984 78.3746 13.808 78.3746 13.152L 78.3746 10.176L 79.9266 10.176L 79.9266 8.048L 78.3746 8.048L 78.3746 5.728ZM 84.9889 19.056L 89.8849 8.048L 87.3089 8.048L 85.5489 12.304L 83.6129 8.048L 80.8929 8.048L 84.2369 14.928L 82.4289 19.056L 84.9889 19.056ZM 98.7044 14C 97.7924 14 96.9124 13.344 96.9124 12.016C 96.9124 10.672 97.7924 10.048 98.7044 10.048C 99.6324 10.048 100.496 10.672 100.496 12.016C 100.496 13.36 99.6324 14 98.7044 14ZM 98.7044 7.808C 96.3364 7.808 94.4804 9.552 94.4804 12.016C 94.4804 14.48 96.3364 16.24 98.7044 16.24C 101.088 16.24 102.928 14.48 102.928 12.016C 102.928 9.552 101.088 7.808 98.7044 7.808ZM 106.926 11.44C 106.926 10.64 107.438 10.048 108.238 10.048C 109.118 10.048 109.534 10.64 109.534 11.424L 109.534 16L 111.966 16L 111.966 11.008C 111.966 9.264 111.07 7.84 109.07 7.84C 108.254 7.84 107.278 8.208 106.846 8.96L 106.846 8.048L 104.494 8.048L 104.494 16L 106.926 16L 106.926 11.44ZM 120.651 9.744L 120.651 6.848L 122.123 6.848C 123.083 6.848 123.739 7.392 123.739 8.304C 123.739 9.184 123.083 9.744 122.123 9.744L 120.651 9.744ZM 122.379 11.92C 124.683 11.92 126.267 10.432 126.267 8.288C 126.267 6.176 124.683 4.656 122.379 4.656L 118.107 4.656L 118.107 16L 120.635 16L 120.635 11.92L 122.379 11.92ZM 132.644 8.048C 132.484 8 132.244 7.968 132.004 7.968C 131.364 7.968 130.356 8.224 129.94 9.12L 129.94 8.048L 127.588 8.048L 127.588 16L 130.02 16L 130.02 12.528C 130.02 10.944 130.9 10.368 131.876 10.368C 132.116 10.368 132.372 10.384 132.644 10.448L 132.644 8.048ZM 136.551 16L 136.551 8.048L 134.119 8.048L 134.119 16L 136.551 16ZM 133.911 5.616C 133.911 6.4 134.551 7.04 135.319 7.04C 136.119 7.04 136.759 6.4 136.759 5.616C 136.759 4.832 136.119 4.192 135.319 4.192C 134.551 4.192 133.911 4.832 133.911 5.616ZM 142.345 10.048C 143.289 10.048 143.769 10.624 143.945 11.232L 146.121 10.576C 145.769 9.152 144.489 7.808 142.297 7.808C 139.961 7.808 138.105 9.552 138.105 12.032C 138.105 14.496 140.009 16.24 142.377 16.24C 144.505 16.24 145.817 14.864 146.169 13.472L 144.025 12.816C 143.849 13.408 143.321 14 142.377 14C 141.369 14 140.521 13.296 140.521 12.032C 140.521 10.752 141.337 10.048 142.345 10.048ZM 150.082 16L 150.082 8.048L 147.65 8.048L 147.65 16L 150.082 16ZM 147.442 5.616C 147.442 6.4 148.082 7.04 148.85 7.04C 149.65 7.04 150.29 6.4 150.29 5.616C 150.29 4.832 149.65 4.192 148.85 4.192C 148.082 4.192 147.442 4.832 147.442 5.616ZM 154.645 11.44C 154.645 10.64 155.157 10.048 155.957 10.048C 156.837 10.048 157.253 10.64 157.253 11.424L 157.253 16L 159.685 16L 159.685 11.008C 159.685 9.264 158.789 7.84 156.789 7.84C 155.973 7.84 154.997 8.208 154.565 8.96L 154.565 8.048L 152.213 8.048L 152.213 16L 154.645 16L 154.645 11.44ZM 161.168 16.448C 161.392 17.872 162.848 19.28 165.136 19.28C 168.112 19.28 169.392 17.296 169.392 15.008L 169.392 8.048L 167.072 8.048L 167.072 8.896C 166.848 8.48 166.16 7.904 164.864 7.904C 162.688 7.904 161.168 9.696 161.168 11.792C 161.168 14 162.752 15.664 164.864 15.664C 166.016 15.664 166.704 15.2 166.992 14.768L 166.992 15.136C 166.992 16.576 166.24 17.168 165.024 17.168C 164.112 17.168 163.472 16.608 163.312 15.84L 161.168 16.448ZM 165.312 13.552C 164.336 13.552 163.6 12.88 163.6 11.792C 163.6 10.704 164.4 10.032 165.312 10.032C 166.224 10.032 167.008 10.704 167.008 11.792C 167.008 12.88 166.304 13.552 165.312 13.552Z"/>
<path id="path4_fill" d="M 13.9743 20L 13.9743 5.7031L 10.7882 5.7031L 10.7882 14.3942L 5.42435 5.7031L 1.5527 5.7031L 1.5527 20L 4.71858 20L 4.71858 10.6032L 10.6067 20L 13.9743 20ZM 21.348 17.4794C 20.1986 17.4794 19.0895 16.6526 19.0895 14.9789C 19.0895 13.2851 20.1986 12.4987 21.348 12.4987C 22.5176 12.4987 23.6065 13.2851 23.6065 14.9789C 23.6065 16.6728 22.5176 17.4794 21.348 17.4794ZM 21.348 9.67558C 18.3636 9.67558 16.0245 11.8736 16.0245 14.9789C 16.0245 18.0843 18.3636 20.3025 21.348 20.3025C 24.3526 20.3025 26.6715 18.0843 26.6715 14.9789C 26.6715 11.8736 24.3526 9.67558 21.348 9.67558ZM 42.4594 20L 46.4318 20L 40.8462 11.8937L 46.4117 5.7031L 42.2174 5.7031L 36.9947 11.7122L 36.9947 5.7031L 33.8086 5.7031L 33.8086 20L 36.9947 20L 36.9947 16.1687L 38.6079 14.374L 42.4594 20ZM 50.8308 14.253C 50.8308 13.2448 51.476 12.4987 52.4843 12.4987C 53.5934 12.4987 54.1176 13.2448 54.1176 14.2328L 54.1176 20L 57.1827 20L 57.1827 13.7086C 57.1827 11.5106 56.0535 9.71591 53.5329 9.71591C 52.5045 9.71591 51.2744 10.1797 50.7299 11.1275L 50.7299 9.97806L 47.7657 9.97806L 47.7657 20L 50.8308 20L 50.8308 14.253ZM 64.3559 17.4794C 63.2065 17.4794 62.0974 16.6526 62.0974 14.9789C 62.0974 13.2851 63.2065 12.4987 64.3559 12.4987C 65.5255 12.4987 66.6144 13.2851 66.6144 14.9789C 66.6144 16.6728 65.5255 17.4794 64.3559 17.4794ZM 64.3559 9.67558C 61.3715 9.67558 59.0324 11.8736 59.0324 14.9789C 59.0324 18.0843 61.3715 20.3025 64.3559 20.3025C 67.3605 20.3025 69.6794 18.0843 69.6794 14.9789C 69.6794 11.8736 67.3605 9.67558 64.3559 9.67558ZM 77.0637 9.97806L 75.0875 15.9065L 73.4139 9.97806L 70.2278 9.97806L 73.3735 20L 76.4789 20L 78.6164 13.5271L 80.7942 20L 83.8391 20L 86.9445 9.97806L 83.9399 9.97806L 82.2662 15.9267L 80.3102 9.97806L 77.0637 9.97806ZM 91.5741 20L 91.5741 5.40063L 88.509 5.40063L 88.509 20L 91.5741 20ZM 96.5978 13.7892C 96.6583 13.0431 97.3036 12.0954 98.5941 12.0954C 100.046 12.0954 100.57 13.023 100.611 13.7892L 96.5978 13.7892ZM 100.832 16.3905C 100.55 17.1769 99.925 17.7012 98.8159 17.7012C 97.6262 17.7012 96.5978 16.8946 96.5373 15.7654L 103.514 15.7654C 103.535 15.7049 103.575 15.2411 103.575 14.8176C 103.575 11.5912 101.659 9.67558 98.5538 9.67558C 95.9525 9.67558 93.5529 11.7324 93.5529 14.9588C 93.5529 18.3263 96.013 20.3025 98.7756 20.3025C 101.316 20.3025 102.909 18.8506 103.393 17.1164L 100.832 16.3905ZM 115.403 5.40063L 112.379 5.40063L 112.379 10.7645C 112.137 10.3814 111.391 9.73608 109.677 9.73608C 106.833 9.73608 104.817 11.9744 104.817 14.9588C 104.817 18.044 106.954 20.2218 109.777 20.2218C 110.987 20.2218 111.996 19.7177 112.459 19.0321C 112.459 19.4354 112.52 19.879 112.54 20L 115.484 20C 115.464 19.7782 115.403 19.1127 115.403 18.2053L 115.403 5.40063ZM 107.902 14.9789C 107.902 13.3053 108.971 12.4987 110.161 12.4987C 111.35 12.4987 112.419 13.3053 112.419 14.9789C 112.419 16.6325 111.35 17.4794 110.161 17.4794C 108.971 17.4794 107.902 16.6325 107.902 14.9789ZM 117.46 20.5646C 117.742 22.3593 119.577 24.1338 122.461 24.1338C 126.211 24.1338 127.825 21.6334 127.825 18.7498L 127.825 9.97806L 124.901 9.97806L 124.901 11.0468C 124.618 10.5225 123.751 9.79657 122.118 9.79657C 119.375 9.79657 117.46 12.055 117.46 14.6966C 117.46 17.4794 119.456 19.5765 122.118 19.5765C 123.57 19.5765 124.437 18.9918 124.8 18.4473L 124.8 18.9111C 124.8 20.7259 123.852 21.472 122.32 21.472C 121.17 21.472 120.364 20.7663 120.162 19.7984L 117.46 20.5646ZM 122.682 16.9148C 121.452 16.9148 120.525 16.0678 120.525 14.6966C 120.525 13.3254 121.533 12.4785 122.682 12.4785C 123.832 12.4785 124.82 13.3254 124.82 14.6966C 124.82 16.0678 123.933 16.9148 122.682 16.9148ZM 132.733 13.7892C 132.794 13.0431 133.439 12.0954 134.729 12.0954C 136.181 12.0954 136.706 13.023 136.746 13.7892L 132.733 13.7892ZM 136.968 16.3905C 136.685 17.1769 136.06 17.7012 134.951 17.7012C 133.762 17.7012 132.733 16.8946 132.673 15.7654L 139.65 15.7654C 139.67 15.7049 139.71 15.2411 139.71 14.8176C 139.71 11.5912 137.794 9.67558 134.689 9.67558C 132.088 9.67558 129.688 11.7324 129.688 14.9588C 129.688 18.3263 132.148 20.3025 134.911 20.3025C 137.452 20.3025 139.045 18.8506 139.529 17.1164L 136.968 16.3905Z"/>
<path id="path5_fill" d="M 8.656 16L 8.656 13.584L 3.76 13.584L 3.76 4.656L 1.232 4.656L 1.232 16L 8.656 16ZM 13.845 14C 12.933 14 12.053 13.344 12.053 12.016C 12.053 10.672 12.933 10.048 13.845 10.048C 14.773 10.048 15.637 10.672 15.637 12.016C 15.637 13.36 14.773 14 13.845 14ZM 13.845 7.808C 11.477 7.808 9.621 9.552 9.621 12.016C 9.621 14.48 11.477 16.24 13.845 16.24C 16.229 16.24 18.069 14.48 18.069 12.016C 18.069 9.552 16.229 7.808 13.845 7.808ZM 23.9281 8.048L 22.3601 12.752L 21.0321 8.048L 18.5041 8.048L 21.0001 16L 23.4641 16L 25.1601 10.864L 26.8881 16L 29.3041 16L 31.7681 8.048L 29.3841 8.048L 28.0561 12.768L 26.5041 8.048L 23.9281 8.048ZM 42.339 16.24C 45.859 16.24 47.363 13.84 47.731 12.272L 45.315 11.584C 45.091 12.4 44.307 13.712 42.339 13.712C 40.643 13.712 39.075 12.48 39.075 10.352C 39.075 7.968 40.787 6.88 42.307 6.88C 44.307 6.88 45.027 8.208 45.203 8.992L 47.587 8.24C 47.219 6.608 45.715 4.416 42.307 4.416C 39.139 4.416 36.451 6.816 36.451 10.352C 36.451 13.888 39.075 16.24 42.339 16.24ZM 52.7044 14C 51.7924 14 50.9124 13.344 50.9124 12.016C 50.9124 10.672 51.7924 10.048 52.7044 10.048C 53.6324 10.048 54.4964 10.672 54.4964 12.016C 54.4964 13.36 53.6324 14 52.7044 14ZM 52.7044 7.808C 50.3364 7.808 48.4804 9.552 48.4804 12.016C 48.4804 14.48 50.3364 16.24 52.7044 16.24C 55.0884 16.24 56.9284 14.48 56.9284 12.016C 56.9284 9.552 55.0884 7.808 52.7044 7.808ZM 60.9259 11.44C 60.9259 10.64 61.4379 10.048 62.2379 10.048C 63.1179 10.048 63.5339 10.64 63.5339 11.424L 63.5339 16L 65.9659 16L 65.9659 11.008C 65.9659 9.264 65.0699 7.84 63.0699 7.84C 62.2539 7.84 61.2779 8.208 60.8459 8.96L 60.8459 8.048L 58.4939 8.048L 58.4939 16L 60.9259 16L 60.9259 11.44ZM 73.7375 10.096L 73.7375 16L 76.1695 16L 76.1695 8.048L 70.8095 8.048L 70.8095 7.36C 70.8095 6.56 71.4335 6.368 71.8495 6.368C 72.2015 6.368 72.4255 6.416 72.5375 6.448L 72.5375 4.464C 72.3135 4.352 71.8175 4.288 71.4175 4.288C 69.4815 4.288 68.3775 5.536 68.3775 7.36L 68.3775 8.048L 67.1135 8.048L 67.1135 10.096L 68.3775 10.096L 68.3775 16L 70.8095 16L 70.8095 10.096L 73.7375 10.096ZM 73.5295 5.616C 73.5295 6.4 74.1695 7.04 74.9375 7.04C 75.7375 7.04 76.3775 6.4 76.3775 5.616C 76.3775 4.816 75.7375 4.192 74.9375 4.192C 74.1695 4.192 73.5295 4.816 73.5295 5.616ZM 86.1148 4.416L 83.7147 4.416L 83.7147 8.672C 83.5228 8.368 82.9308 7.856 81.5708 7.856C 79.3148 7.856 77.7147 9.632 77.7147 12C 77.7147 14.448 79.4108 16.176 81.6508 16.176C 82.6107 16.176 83.4108 15.776 83.7788 15.232C 83.7788 15.552 83.8267 15.904 83.8427 16L 86.1788 16C 86.1628 15.824 86.1148 15.296 86.1148 14.576L 86.1148 4.416ZM 80.1628 12.016C 80.1628 10.688 81.0108 10.048 81.9548 10.048C 82.8988 10.048 83.7468 10.688 83.7468 12.016C 83.7468 13.328 82.8988 14 81.9548 14C 81.0108 14 80.1628 13.328 80.1628 12.016ZM 90.1464 11.072C 90.1944 10.48 90.7064 9.728 91.7304 9.728C 92.8824 9.728 93.2984 10.464 93.3304 11.072L 90.1464 11.072ZM 93.5064 13.136C 93.2824 13.76 92.7864 14.176 91.9064 14.176C 90.9624 14.176 90.1464 13.536 90.0984 12.64L 95.6344 12.64C 95.6504 12.592 95.6824 12.224 95.6824 11.888C 95.6824 9.328 94.1624 7.808 91.6984 7.808C 89.6344 7.808 87.7304 9.44 87.7304 12C 87.7304 14.672 89.6824 16.24 91.8744 16.24C 93.8904 16.24 95.1544 15.088 95.5384 13.712L 93.5064 13.136ZM 99.6759 11.44C 99.6759 10.64 100.188 10.048 100.988 10.048C 101.868 10.048 102.284 10.64 102.284 11.424L 102.284 16L 104.716 16L 104.716 11.008C 104.716 9.264 103.82 7.84 101.82 7.84C 101.004 7.84 100.028 8.208 99.5959 8.96L 99.5959 8.048L 97.2439 8.048L 97.2439 16L 99.6759 16L 99.6759 11.44ZM 110.424 10.048C 111.368 10.048 111.847 10.624 112.023 11.232L 114.2 10.576C 113.847 9.152 112.567 7.808 110.376 7.808C 108.04 7.808 106.183 9.552 106.183 12.032C 106.183 14.496 108.088 16.24 110.456 16.24C 112.584 16.24 113.895 14.864 114.248 13.472L 112.103 12.816C 111.927 13.408 111.4 14 110.456 14C 109.448 14 108.6 13.296 108.6 12.032C 108.6 10.752 109.416 10.048 110.424 10.048ZM 117.49 11.072C 117.538 10.48 118.05 9.728 119.074 9.728C 120.226 9.728 120.642 10.464 120.674 11.072L 117.49 11.072ZM 120.85 13.136C 120.626 13.76 120.13 14.176 119.25 14.176C 118.306 14.176 117.49 13.536 117.442 12.64L 122.978 12.64C 122.994 12.592 123.026 12.224 123.026 11.888C 123.026 9.328 121.506 7.808 119.042 7.808C 116.978 7.808 115.074 9.44 115.074 12C 115.074 14.672 117.026 16.24 119.218 16.24C 121.234 16.24 122.498 15.088 122.882 13.712L 120.85 13.136Z"/>
<path id="path6_fill" d="M 3.776 16L 3.776 11.76L 7.968 11.76L 7.968 9.456L 3.76 9.456L 3.76 7.056L 8.544 7.056L 8.544 4.656L 1.232 4.656L 1.232 16L 3.776 16ZM 11.5057 11.072C 11.5537 10.48 12.0657 9.728 13.0898 9.728C 14.2417 9.728 14.6578 10.464 14.6898 11.072L 11.5057 11.072ZM 14.8658 13.136C 14.6418 13.76 14.1458 14.176 13.2658 14.176C 12.3218 14.176 11.5058 13.536 11.4578 12.64L 16.9937 12.64C 17.0097 12.592 17.0418 12.224 17.0418 11.888C 17.0418 9.328 15.5218 7.808 13.0578 7.808C 10.9938 7.808 9.08975 9.44 9.08975 12C 9.08975 14.672 11.0418 16.24 13.2338 16.24C 15.2498 16.24 16.5138 15.088 16.8978 13.712L 14.8658 13.136ZM 18.1232 13.808C 18.1232 15.072 19.1313 16.224 20.8753 16.224C 21.9313 16.224 22.6992 15.776 23.1152 15.104C 23.1152 15.648 23.1793 15.936 23.1953 16L 25.3873 16C 25.3713 15.92 25.2912 15.392 25.2912 14.768L 25.2912 10.88C 25.2912 9.248 24.3473 7.808 21.7713 7.808C 19.4353 7.808 18.3792 9.312 18.2832 10.448L 20.3953 10.88C 20.4432 10.288 20.9073 9.712 21.7553 9.712C 22.5233 9.712 22.9232 10.112 22.9232 10.576C 22.9232 10.848 22.7792 11.056 22.3472 11.12L 20.4752 11.408C 19.1632 11.6 18.1232 12.4 18.1232 13.808ZM 21.4672 14.464C 20.7952 14.464 20.5233 14.064 20.5233 13.648C 20.5233 13.088 20.9072 12.848 21.4192 12.768L 22.9232 12.528L 22.9232 12.88C 22.9232 14.112 22.1872 14.464 21.4672 14.464ZM 32.3936 8.048C 32.2336 8 31.9936 7.968 31.7536 7.968C 31.1136 7.968 30.1056 8.224 29.6896 9.12L 29.6896 8.048L 27.3376 8.048L 27.3376 16L 29.7696 16L 29.7696 12.528C 29.7696 10.944 30.6496 10.368 31.6256 10.368C 31.8656 10.368 32.1216 10.384 32.3936 10.448L 32.3936 8.048ZM 41.3762 14C 40.4642 14 39.5842 13.344 39.5842 12.016C 39.5842 10.672 40.4642 10.048 41.3762 10.048C 42.3042 10.048 43.1683 10.672 43.1683 12.016C 43.1683 13.36 42.3042 14 41.3762 14ZM 41.3762 7.808C 39.0082 7.808 37.1523 9.552 37.1523 12.016C 37.1523 14.48 39.0082 16.24 41.3762 16.24C 43.7602 16.24 45.6003 14.48 45.6003 12.016C 45.6003 9.552 43.7602 7.808 41.3762 7.808ZM 51.6938 10.096L 51.6938 8.048L 49.9657 8.048L 49.9657 7.44C 49.9657 6.56 50.5737 6.368 51.0057 6.368C 51.3897 6.368 51.5977 6.416 51.7257 6.448L 51.7257 4.464C 51.5018 4.352 51.0698 4.288 50.5738 4.288C 48.6378 4.288 47.5337 5.536 47.5337 7.36L 47.5337 8.048L 46.2698 8.048L 46.2698 10.096L 47.5337 10.096L 47.5337 16L 49.9657 16L 49.9657 10.096L 51.6938 10.096ZM 56.2597 13.744C 56.3237 14.624 57.1238 16.24 59.6198 16.24C 61.7478 16.24 62.7878 14.912 62.7878 13.552C 62.7878 12.384 61.9878 11.392 60.3398 11.056L 59.2837 10.848C 58.9318 10.784 58.6598 10.592 58.6598 10.256C 58.6598 9.84 59.0598 9.568 59.5237 9.568C 60.2597 9.568 60.5958 10.016 60.6598 10.544L 62.6758 10.176C 62.5958 9.248 61.7958 7.808 59.4918 7.808C 57.7157 7.808 56.4357 8.992 56.4357 10.448C 56.4357 11.568 57.1078 12.528 58.8038 12.896L 59.7157 13.104C 60.3077 13.232 60.4997 13.472 60.4997 13.76C 60.4997 14.112 60.1958 14.448 59.5718 14.448C 58.7398 14.448 58.3558 13.92 58.3237 13.376L 56.2597 13.744ZM 66.1933 11.072C 66.2413 10.48 66.7532 9.728 67.7772 9.728C 68.9292 9.728 69.3453 10.464 69.3773 11.072L 66.1933 11.072ZM 69.5533 13.136C 69.3293 13.76 68.8332 14.176 67.9532 14.176C 67.0092 14.176 66.1933 13.536 66.1453 12.64L 71.6813 12.64C 71.6973 12.592 71.7293 12.224 71.7293 11.888C 71.7293 9.328 70.2092 7.808 67.7452 7.808C 65.6812 7.808 63.7773 9.44 63.7773 12C 63.7773 14.672 65.7293 16.24 67.9213 16.24C 69.9373 16.24 71.2013 15.088 71.5853 13.712L 69.5533 13.136ZM 75.7228 16L 75.7228 4.416L 73.2908 4.416L 73.2908 16L 75.7228 16ZM 82.3969 10.096L 82.3969 8.048L 80.6689 8.048L 80.6689 7.44C 80.6689 6.56 81.2769 6.368 81.7089 6.368C 82.0929 6.368 82.3009 6.416 82.4289 6.448L 82.4289 4.464C 82.2049 4.352 81.7729 4.288 81.2769 4.288C 79.3409 4.288 78.2369 5.536 78.2369 7.36L 78.2369 8.048L 76.9729 8.048L 76.9729 10.096L 78.2369 10.096L 78.2369 16L 80.6689 16L 80.6689 10.096L 82.3969 10.096ZM 87.9731 12.272L 87.9731 10.08L 83.1731 10.08L 83.1731 12.272L 87.9731 12.272ZM 92.1915 19.04L 92.1915 15.376C 92.5595 15.824 93.3275 16.176 94.3515 16.176C 96.5755 16.176 98.1435 14.432 98.1435 12C 98.1435 9.616 96.7515 7.856 94.4475 7.856C 93.3115 7.856 92.4475 8.352 92.1115 8.864L 92.1115 8.048L 89.7595 8.048L 89.7595 19.04L 92.1915 19.04ZM 95.7595 12.016C 95.7595 13.344 94.9115 14 93.9515 14C 93.0075 14 92.1595 13.328 92.1595 12.016C 92.1595 10.688 93.0075 10.048 93.9515 10.048C 94.9115 10.048 95.7595 10.688 95.7595 12.016ZM 104.769 8.048C 104.609 8 104.369 7.968 104.129 7.968C 103.489 7.968 102.481 8.224 102.065 9.12L 102.065 8.048L 99.7126 8.048L 99.7126 16L 102.145 16L 102.145 12.528C 102.145 10.944 103.025 10.368 104.001 10.368C 104.241 10.368 104.497 10.384 104.769 10.448L 104.769 8.048ZM 109.798 14C 108.886 14 108.006 13.344 108.006 12.016C 108.006 10.672 108.886 10.048 109.798 10.048C 110.726 10.048 111.59 10.672 111.59 12.016C 111.59 13.36 110.726 14 109.798 14ZM 109.798 7.808C 107.43 7.808 105.574 9.552 105.574 12.016C 105.574 14.48 107.43 16.24 109.798 16.24C 112.182 16.24 114.022 14.48 114.022 12.016C 114.022 9.552 112.182 7.808 109.798 7.808ZM 118.02 16L 118.02 11.424C 118.02 10.704 118.484 10.048 119.332 10.048C 120.212 10.048 120.612 10.64 120.612 11.392L 120.612 16L 123.012 16L 123.012 11.408C 123.012 10.704 123.476 10.048 124.34 10.048C 125.204 10.048 125.604 10.64 125.604 11.392L 125.604 16L 127.956 16L 127.956 10.848C 127.956 8.688 126.516 7.808 125.012 7.808C 123.94 7.808 123.172 8.16 122.548 9.056C 122.148 8.272 121.332 7.808 120.196 7.808C 119.332 7.808 118.308 8.256 117.908 8.96L 117.908 8.048L 115.588 8.048L 115.588 16L 118.02 16ZM 133.657 14C 132.745 14 131.865 13.344 131.865 12.016C 131.865 10.672 132.745 10.048 133.657 10.048C 134.585 10.048 135.45 10.672 135.45 12.016C 135.45 13.36 134.585 14 133.657 14ZM 133.657 7.808C 131.29 7.808 129.434 9.552 129.434 12.016C 129.434 14.48 131.29 16.24 133.657 16.24C 136.041 16.24 137.881 14.48 137.881 12.016C 137.881 9.552 136.041 7.808 133.657 7.808ZM 142.343 5.728L 140.167 5.728L 140.167 6.752C 140.167 7.488 139.767 8.048 138.935 8.048L 138.535 8.048L 138.535 10.176L 139.943 10.176L 139.943 13.584C 139.943 15.168 140.951 16.144 142.599 16.144C 143.367 16.144 143.767 15.968 143.863 15.92L 143.863 13.904C 143.719 13.936 143.479 13.984 143.223 13.984C 142.695 13.984 142.343 13.808 142.343 13.152L 142.343 10.176L 143.895 10.176L 143.895 8.048L 142.343 8.048L 142.343 5.728ZM 148.051 16L 148.051 8.048L 145.619 8.048L 145.619 16L 148.051 16ZM 145.411 5.616C 145.411 6.4 146.051 7.04 146.819 7.04C 147.619 7.04 148.259 6.4 148.259 5.616C 148.259 4.832 147.619 4.192 146.819 4.192C 146.051 4.192 145.411 4.832 145.411 5.616ZM 153.829 14C 152.917 14 152.037 13.344 152.037 12.016C 152.037 10.672 152.917 10.048 153.829 10.048C 154.757 10.048 155.621 10.672 155.621 12.016C 155.621 13.36 154.757 14 153.829 14ZM 153.829 7.808C 151.461 7.808 149.605 9.552 149.605 12.016C 149.605 14.48 151.461 16.24 153.829 16.24C 156.213 16.24 158.053 14.48 158.053 12.016C 158.053 9.552 156.213 7.808 153.829 7.808ZM 162.051 11.44C 162.051 10.64 162.563 10.048 163.363 10.048C 164.243 10.048 164.659 10.64 164.659 11.424L 164.659 16L 167.091 16L 167.091 11.008C 167.091 9.264 166.195 7.84 164.195 7.84C 163.379 7.84 162.403 8.208 161.971 8.96L 161.971 8.048L 159.619 8.048L 159.619 16L 162.051 16L 162.051 11.44Z"/>
<path id="path7_fill" d="M 3.792 16L 3.792 4.656L 1.232 4.656L 1.232 16L 3.792 16ZM 8.51962 16L 8.51962 11.424C 8.51962 10.704 8.98362 10.048 9.83162 10.048C 10.7116 10.048 11.1116 10.64 11.1116 11.392L 11.1116 16L 13.5116 16L 13.5116 11.408C 13.5116 10.704 13.9756 10.048 14.8396 10.048C 15.7036 10.048 16.1036 10.64 16.1036 11.392L 16.1036 16L 18.4556 16L 18.4556 10.848C 18.4556 8.688 17.0156 7.808 15.5116 7.808C 14.4396 7.808 13.6716 8.16 13.0476 9.056C 12.6476 8.272 11.8316 7.808 10.6956 7.808C 9.83162 7.808 8.80762 8.256 8.40762 8.96L 8.40762 8.048L 6.08763 8.048L 6.08763 16L 8.51962 16ZM 22.9415 19.04L 22.9415 15.376C 23.3095 15.824 24.0775 16.176 25.1015 16.176C 27.3255 16.176 28.8935 14.432 28.8935 12C 28.8935 9.616 27.5015 7.856 25.1975 7.856C 24.0615 7.856 23.1975 8.352 22.8615 8.864L 22.8615 8.048L 20.5095 8.048L 20.5095 19.04L 22.9415 19.04ZM 26.5095 12.016C 26.5095 13.344 25.6615 14 24.7015 14C 23.7575 14 22.9095 13.328 22.9095 12.016C 22.9095 10.688 23.7575 10.048 24.7015 10.048C 25.6615 10.048 26.5095 10.688 26.5095 12.016ZM 34.1106 14C 33.1986 14 32.3186 13.344 32.3186 12.016C 32.3186 10.672 33.1986 10.048 34.1106 10.048C 35.0386 10.048 35.9026 10.672 35.9026 12.016C 35.9026 13.36 35.0386 14 34.1106 14ZM 34.1106 7.808C 31.7426 7.808 29.8866 9.552 29.8866 12.016C 29.8866 14.48 31.7426 16.24 34.1106 16.24C 36.4946 16.24 38.3346 14.48 38.3346 12.016C 38.3346 9.552 36.4946 7.808 34.1106 7.808ZM 39.2441 13.744C 39.3081 14.624 40.1081 16.24 42.6041 16.24C 44.7321 16.24 45.7721 14.912 45.7721 13.552C 45.7721 12.384 44.9721 11.392 43.3241 11.056L 42.2681 10.848C 41.9161 10.784 41.6441 10.592 41.6441 10.256C 41.6441 9.84 42.0441 9.568 42.5081 9.568C 43.2441 9.568 43.5801 10.016 43.6441 10.544L 45.6601 10.176C 45.5801 9.248 44.7801 7.808 42.4761 7.808C 40.7001 7.808 39.4201 8.992 39.4201 10.448C 39.4201 11.568 40.0921 12.528 41.7881 12.896L 42.7001 13.104C 43.2921 13.232 43.4841 13.472 43.4841 13.76C 43.4841 14.112 43.1801 14.448 42.5561 14.448C 41.7241 14.448 41.3401 13.92 41.3081 13.376L 39.2441 13.744ZM 50.2653 5.728L 48.0892 5.728L 48.0892 6.752C 48.0892 7.488 47.6893 8.048 46.8573 8.048L 46.4573 8.048L 46.4573 10.176L 47.8653 10.176L 47.8653 13.584C 47.8653 15.168 48.8732 16.144 50.5213 16.144C 51.2893 16.144 51.6893 15.968 51.7852 15.92L 51.7852 13.904C 51.6412 13.936 51.4012 13.984 51.1452 13.984C 50.6172 13.984 50.2653 13.808 50.2653 13.152L 50.2653 10.176L 51.8173 10.176L 51.8173 8.048L 50.2653 8.048L 50.2653 5.728ZM 55.287 11.072C 55.335 10.48 55.847 9.728 56.871 9.728C 58.023 9.728 58.439 10.464 58.471 11.072L 55.287 11.072ZM 58.647 13.136C 58.423 13.76 57.927 14.176 57.047 14.176C 56.103 14.176 55.287 13.536 55.239 12.64L 60.775 12.64C 60.791 12.592 60.823 12.224 60.823 11.888C 60.823 9.328 59.303 7.808 56.839 7.808C 54.775 7.808 52.871 9.44 52.871 12C 52.871 14.672 54.823 16.24 57.015 16.24C 59.031 16.24 60.295 15.088 60.679 13.712L 58.647 13.136ZM 67.4405 8.048C 67.2805 8 67.0405 7.968 66.8005 7.968C 66.1605 7.968 65.1525 8.224 64.7365 9.12L 64.7365 8.048L 62.3845 8.048L 62.3845 16L 64.8165 16L 64.8165 12.528C 64.8165 10.944 65.6965 10.368 66.6725 10.368C 66.9125 10.368 67.1685 10.384 67.4405 10.448L 67.4405 8.048ZM 80.7431 7.44C 80.5031 6.112 79.4311 4.416 76.5991 4.416C 74.4231 4.416 72.5351 5.92 72.5351 8.064C 72.5351 9.744 73.7031 11.024 75.6231 11.392L 77.1751 11.68C 77.9271 11.824 78.3911 12.24 78.3911 12.816C 78.3911 13.52 77.7831 14 76.7911 14C 75.2391 14 74.5351 13.088 74.4391 12.048L 72.1191 12.608C 72.2791 14.208 73.6231 16.24 76.7591 16.24C 79.4631 16.24 80.9511 14.432 80.9511 12.656C 80.9511 11.04 79.8311 9.648 77.6711 9.248L 76.1511 8.96C 75.3671 8.816 75.0311 8.416 75.0311 7.872C 75.0311 7.248 75.6391 6.656 76.5831 6.656C 77.9591 6.656 78.3911 7.552 78.4711 8.08L 80.7431 7.44ZM 85.3014 19.056L 90.1974 8.048L 87.6214 8.048L 85.8614 12.304L 83.9254 8.048L 81.2054 8.048L 84.5494 14.928L 82.7414 19.056L 85.3014 19.056ZM 93.8634 11.44C 93.8634 10.64 94.3754 10.048 95.1754 10.048C 96.0554 10.048 96.4714 10.64 96.4714 11.424L 96.4714 16L 98.9034 16L 98.9034 11.008C 98.9034 9.264 98.0074 7.84 96.0074 7.84C 95.1914 7.84 94.2154 8.208 93.7834 8.96L 93.7834 8.048L 91.4314 8.048L 91.4314 16L 93.8634 16L 93.8634 11.44ZM 108.771 4.416L 106.371 4.416L 106.371 8.672C 106.179 8.368 105.587 7.856 104.227 7.856C 101.971 7.856 100.371 9.632 100.371 12C 100.371 14.448 102.067 16.176 104.307 16.176C 105.267 16.176 106.067 15.776 106.435 15.232C 106.435 15.552 106.483 15.904 106.499 16L 108.835 16C 108.819 15.824 108.771 15.296 108.771 14.576L 108.771 4.416ZM 102.819 12.016C 102.819 10.688 103.667 10.048 104.611 10.048C 105.555 10.048 106.403 10.688 106.403 12.016C 106.403 13.328 105.555 14 104.611 14C 103.667 14 102.819 13.328 102.819 12.016ZM 116.019 8.048C 115.859 8 115.619 7.968 115.379 7.968C 114.739 7.968 113.731 8.224 113.315 9.12L 113.315 8.048L 110.963 8.048L 110.963 16L 113.395 16L 113.395 12.528C 113.395 10.944 114.275 10.368 115.251 10.368C 115.491 10.368 115.747 10.384 116.019 10.448L 116.019 8.048ZM 121.048 14C 120.136 14 119.256 13.344 119.256 12.016C 119.256 10.672 120.136 10.048 121.048 10.048C 121.976 10.048 122.84 10.672 122.84 12.016C 122.84 13.36 121.976 14 121.048 14ZM 121.048 7.808C 118.68 7.808 116.824 9.552 116.824 12.016C 116.824 14.48 118.68 16.24 121.048 16.24C 123.432 16.24 125.272 14.48 125.272 12.016C 125.272 9.552 123.432 7.808 121.048 7.808ZM 129.27 16L 129.27 11.424C 129.27 10.704 129.734 10.048 130.582 10.048C 131.462 10.048 131.862 10.64 131.862 11.392L 131.862 16L 134.262 16L 134.262 11.408C 134.262 10.704 134.726 10.048 135.59 10.048C 136.454 10.048 136.854 10.64 136.854 11.392L 136.854 16L 139.206 16L 139.206 10.848C 139.206 8.688 137.766 7.808 136.262 7.808C 135.19 7.808 134.422 8.16 133.798 9.056C 133.398 8.272 132.582 7.808 131.446 7.808C 130.582 7.808 129.558 8.256 129.158 8.96L 129.158 8.048L 126.838 8.048L 126.838 16L 129.27 16ZM 143.1 11.072C 143.148 10.48 143.66 9.728 144.684 9.728C 145.835 9.728 146.251 10.464 146.284 11.072L 143.1 11.072ZM 146.459 13.136C 146.236 13.76 145.739 14.176 144.859 14.176C 143.916 14.176 143.1 13.536 143.052 12.64L 148.588 12.64C 148.603 12.592 148.636 12.224 148.636 11.888C 148.636 9.328 147.115 7.808 144.651 7.808C 142.588 7.808 140.684 9.44 140.684 12C 140.684 14.672 142.635 16.24 144.827 16.24C 146.843 16.24 148.108 15.088 148.492 13.712L 146.459 13.136Z"/>
<path id="path8_fill" d="M 3.776 9.744L 3.776 6.848L 5.248 6.848C 6.208 6.848 6.864 7.392 6.864 8.304C 6.864 9.184 6.208 9.744 5.248 9.744L 3.776 9.744ZM 5.504 11.92C 7.808 11.92 9.392 10.432 9.392 8.288C 9.392 6.176 7.808 4.656 5.504 4.656L 1.232 4.656L 1.232 16L 3.76 16L 3.76 11.92L 5.504 11.92ZM 14.095 14C 13.183 14 12.303 13.344 12.303 12.016C 12.303 10.672 13.183 10.048 14.095 10.048C 15.023 10.048 15.887 10.672 15.887 12.016C 15.887 13.36 15.023 14 14.095 14ZM 14.095 7.808C 11.727 7.808 9.871 9.552 9.871 12.016C 9.871 14.48 11.727 16.24 14.095 16.24C 16.479 16.24 18.319 14.48 18.319 12.016C 18.319 9.552 16.479 7.808 14.095 7.808ZM 23.5325 14C 22.6205 14 21.7405 13.344 21.7405 12.016C 21.7405 10.672 22.6205 10.048 23.5325 10.048C 24.4605 10.048 25.3245 10.672 25.3245 12.016C 25.3245 13.36 24.4605 14 23.5325 14ZM 23.5325 7.808C 21.1645 7.808 19.3085 9.552 19.3085 12.016C 19.3085 14.48 21.1645 16.24 23.5325 16.24C 25.9165 16.24 27.7565 14.48 27.7565 12.016C 27.7565 9.552 25.9165 7.808 23.5325 7.808ZM 34.378 8.048C 34.218 8 33.978 7.968 33.738 7.968C 33.098 7.968 32.09 8.224 31.674 9.12L 31.674 8.048L 29.322 8.048L 29.322 16L 31.754 16L 31.754 12.528C 31.754 10.944 32.634 10.368 33.61 10.368C 33.85 10.368 34.106 10.384 34.378 10.448L 34.378 8.048ZM 45.1046 16.24C 48.6246 16.24 50.1286 13.84 50.4966 12.272L 48.0806 11.584C 47.8566 12.4 47.0726 13.712 45.1046 13.712C 43.4086 13.712 41.8406 12.48 41.8406 10.352C 41.8406 7.968 43.5526 6.88 45.0726 6.88C 47.0726 6.88 47.7926 8.208 47.9686 8.992L 50.3526 8.24C 49.9846 6.608 48.4806 4.416 45.0726 4.416C 41.9046 4.416 39.2166 6.816 39.2166 10.352C 39.2166 13.888 41.8406 16.24 45.1046 16.24ZM 55.47 14C 54.558 14 53.678 13.344 53.678 12.016C 53.678 10.672 54.558 10.048 55.47 10.048C 56.398 10.048 57.262 10.672 57.262 12.016C 57.262 13.36 56.398 14 55.47 14ZM 55.47 7.808C 53.102 7.808 51.246 9.552 51.246 12.016C 51.246 14.48 53.102 16.24 55.47 16.24C 57.854 16.24 59.694 14.48 59.694 12.016C 59.694 9.552 57.854 7.808 55.47 7.808ZM 63.6915 16L 63.6915 11.424C 63.6915 10.704 64.1555 10.048 65.0035 10.048C 65.8835 10.048 66.2835 10.64 66.2835 11.392L 66.2835 16L 68.6835 16L 68.6835 11.408C 68.6835 10.704 69.1475 10.048 70.0115 10.048C 70.8755 10.048 71.2755 10.64 71.2755 11.392L 71.2755 16L 73.6275 16L 73.6275 10.848C 73.6275 8.688 72.1875 7.808 70.6835 7.808C 69.6115 7.808 68.8435 8.16 68.2195 9.056C 67.8195 8.272 67.0035 7.808 65.8675 7.808C 65.0035 7.808 63.9795 8.256 63.5795 8.96L 63.5795 8.048L 61.2595 8.048L 61.2595 16L 63.6915 16ZM 78.1134 16L 78.1134 11.424C 78.1134 10.704 78.5774 10.048 79.4254 10.048C 80.3054 10.048 80.7054 10.64 80.7054 11.392L 80.7054 16L 83.1054 16L 83.1054 11.408C 83.1054 10.704 83.5694 10.048 84.4334 10.048C 85.2974 10.048 85.6974 10.64 85.6974 11.392L 85.6974 16L 88.0494 16L 88.0494 10.848C 88.0494 8.688 86.6094 7.808 85.1054 7.808C 84.0334 7.808 83.2654 8.16 82.6414 9.056C 82.2414 8.272 81.4254 7.808 80.2894 7.808C 79.4254 7.808 78.4014 8.256 78.0014 8.96L 78.0014 8.048L 75.6814 8.048L 75.6814 16L 78.1134 16ZM 95.2236 16L 97.5596 16C 97.5436 15.872 97.4796 15.296 97.4796 14.576L 97.4796 8.048L 95.0476 8.048L 95.0476 12.576C 95.0476 13.376 94.5356 13.936 93.7196 13.936C 92.8556 13.936 92.4396 13.328 92.4396 12.56L 92.4396 8.048L 90.0076 8.048L 90.0076 13.072C 90.0076 14.768 91.0956 16.176 93.0316 16.176C 93.8316 16.176 94.7436 15.888 95.1596 15.2C 95.1596 15.408 95.1916 15.856 95.2236 16ZM 102.051 11.44C 102.051 10.64 102.563 10.048 103.363 10.048C 104.243 10.048 104.659 10.64 104.659 11.424L 104.659 16L 107.091 16L 107.091 11.008C 107.091 9.264 106.195 7.84 104.195 7.84C 103.379 7.84 102.403 8.208 101.971 8.96L 101.971 8.048L 99.6189 8.048L 99.6189 16L 102.051 16L 102.051 11.44ZM 111.567 16L 111.567 8.048L 109.135 8.048L 109.135 16L 111.567 16ZM 108.927 5.616C 108.927 6.4 109.567 7.04 110.335 7.04C 111.135 7.04 111.775 6.4 111.775 5.616C 111.775 4.832 111.135 4.192 110.335 4.192C 109.567 4.192 108.927 4.832 108.927 5.616ZM 117.361 10.048C 118.305 10.048 118.785 10.624 118.961 11.232L 121.137 10.576C 120.785 9.152 119.505 7.808 117.313 7.808C 114.977 7.808 113.121 9.552 113.121 12.032C 113.121 14.496 115.025 16.24 117.393 16.24C 119.521 16.24 120.833 14.864 121.185 13.472L 119.041 12.816C 118.865 13.408 118.337 14 117.393 14C 116.385 14 115.537 13.296 115.537 12.032C 115.537 10.752 116.353 10.048 117.361 10.048ZM 122.17 13.808C 122.17 15.072 123.178 16.224 124.922 16.224C 125.978 16.224 126.746 15.776 127.162 15.104C 127.162 15.648 127.226 15.936 127.242 16L 129.434 16C 129.418 15.92 129.338 15.392 129.338 14.768L 129.338 10.88C 129.338 9.248 128.394 7.808 125.818 7.808C 123.482 7.808 122.426 9.312 122.33 10.448L 124.442 10.88C 124.49 10.288 124.954 9.712 125.802 9.712C 126.57 9.712 126.97 10.112 126.97 10.576C 126.97 10.848 126.826 11.056 126.394 11.12L 124.522 11.408C 123.21 11.6 122.17 12.4 122.17 13.808ZM 125.514 14.464C 124.842 14.464 124.57 14.064 124.57 13.648C 124.57 13.088 124.954 12.848 125.466 12.768L 126.97 12.528L 126.97 12.88C 126.97 14.112 126.234 14.464 125.514 14.464ZM 134.218 5.728L 132.042 5.728L 132.042 6.752C 132.042 7.488 131.642 8.048 130.81 8.048L 130.41 8.048L 130.41 10.176L 131.818 10.176L 131.818 13.584C 131.818 15.168 132.826 16.144 134.474 16.144C 135.242 16.144 135.642 15.968 135.738 15.92L 135.738 13.904C 135.594 13.936 135.354 13.984 135.098 13.984C 134.57 13.984 134.218 13.808 134.218 13.152L 134.218 10.176L 135.77 10.176L 135.77 8.048L 134.218 8.048L 134.218 5.728ZM 139.926 16L 139.926 8.048L 137.494 8.048L 137.494 16L 139.926 16ZM 137.286 5.616C 137.286 6.4 137.926 7.04 138.694 7.04C 139.494 7.04 140.134 6.4 140.134 5.616C 140.134 4.832 139.494 4.192 138.694 4.192C 137.926 4.192 137.286 4.832 137.286 5.616ZM 145.704 14C 144.792 14 143.912 13.344 143.912 12.016C 143.912 10.672 144.792 10.048 145.704 10.048C 146.632 10.048 147.496 10.672 147.496 12.016C 147.496 13.36 146.632 14 145.704 14ZM 145.704 7.808C 143.336 7.808 141.48 9.552 141.48 12.016C 141.48 14.48 143.336 16.24 145.704 16.24C 148.088 16.24 149.928 14.48 149.928 12.016C 149.928 9.552 148.088 7.808 145.704 7.808ZM 153.926 11.44C 153.926 10.64 154.438 10.048 155.238 10.048C 156.118 10.048 156.534 10.64 156.534 11.424L 156.534 16L 158.966 16L 158.966 11.008C 158.966 9.264 158.07 7.84 156.07 7.84C 155.254 7.84 154.278 8.208 153.846 8.96L 153.846 8.048L 151.494 8.048L 151.494 16L 153.926 16L 153.926 11.44Z"/>
<path id="path9_fill" d="M 11.088 16L 11.088 4.656L 8.56 4.656L 8.56 11.552L 4.304 4.656L 1.232 4.656L 1.232 16L 3.744 16L 3.744 8.544L 8.416 16L 11.088 16ZM 16.9387 14C 16.0267 14 15.1468 13.344 15.1468 12.016C 15.1468 10.672 16.0267 10.048 16.9387 10.048C 17.8667 10.048 18.7308 10.672 18.7308 12.016C 18.7308 13.36 17.8667 14 16.9387 14ZM 16.9387 7.808C 14.5707 7.808 12.7148 9.552 12.7148 12.016C 12.7148 14.48 14.5707 16.24 16.9387 16.24C 19.3227 16.24 21.1628 14.48 21.1628 12.016C 21.1628 9.552 19.3227 7.808 16.9387 7.808ZM 26.0098 13.744C 26.0738 14.624 26.8738 16.24 29.3697 16.24C 31.4977 16.24 32.5378 14.912 32.5378 13.552C 32.5378 12.384 31.7378 11.392 30.0898 11.056L 29.0338 10.848C 28.6818 10.784 28.4097 10.592 28.4097 10.256C 28.4097 9.84 28.8098 9.568 29.2737 9.568C 30.0098 9.568 30.3457 10.016 30.4097 10.544L 32.4258 10.176C 32.3458 9.248 31.5457 7.808 29.2417 7.808C 27.4657 7.808 26.1857 8.992 26.1857 10.448C 26.1857 11.568 26.8577 12.528 28.5538 12.896L 29.4657 13.104C 30.0577 13.232 30.2497 13.472 30.2497 13.76C 30.2497 14.112 29.9458 14.448 29.3218 14.448C 28.4898 14.448 28.1058 13.92 28.0738 13.376L 26.0098 13.744ZM 33.6232 13.808C 33.6232 15.072 34.6313 16.224 36.3753 16.224C 37.4312 16.224 38.1993 15.776 38.6153 15.104C 38.6153 15.648 38.6793 15.936 38.6953 16L 40.8873 16C 40.8713 15.92 40.7912 15.392 40.7912 14.768L 40.7912 10.88C 40.7912 9.248 39.8473 7.808 37.2713 7.808C 34.9353 7.808 33.8792 9.312 33.7833 10.448L 35.8952 10.88C 35.9432 10.288 36.4073 9.712 37.2553 9.712C 38.0233 9.712 38.4233 10.112 38.4233 10.576C 38.4233 10.848 38.2793 11.056 37.8473 11.12L 35.9753 11.408C 34.6633 11.6 33.6232 12.4 33.6232 13.808ZM 36.9672 14.464C 36.2953 14.464 36.0232 14.064 36.0232 13.648C 36.0232 13.088 36.4072 12.848 36.9192 12.768L 38.4233 12.528L 38.4233 12.88C 38.4233 14.112 37.6872 14.464 36.9672 14.464ZM 45.2696 16L 45.2696 4.416L 42.8376 4.416L 42.8376 16L 45.2696 16ZM 49.2557 11.072C 49.3038 10.48 49.8158 9.728 50.8398 9.728C 51.9918 9.728 52.4078 10.464 52.4398 11.072L 49.2557 11.072ZM 52.6157 13.136C 52.3918 13.76 51.8957 14.176 51.0157 14.176C 50.0717 14.176 49.2557 13.536 49.2077 12.64L 54.7437 12.64C 54.7597 12.592 54.7918 12.224 54.7918 11.888C 54.7918 9.328 53.2717 7.808 50.8077 7.808C 48.7437 7.808 46.8398 9.44 46.8398 12C 46.8398 14.672 48.7918 16.24 50.9838 16.24C 52.9997 16.24 54.2638 15.088 54.6478 13.712L 52.6157 13.136ZM 55.6972 13.744C 55.7612 14.624 56.5613 16.24 59.0573 16.24C 61.1853 16.24 62.2253 14.912 62.2253 13.552C 62.2253 12.384 61.4253 11.392 59.7773 11.056L 58.7212 10.848C 58.3693 10.784 58.0973 10.592 58.0973 10.256C 58.0973 9.84 58.4973 9.568 58.9612 9.568C 59.6972 9.568 60.0333 10.016 60.0973 10.544L 62.1133 10.176C 62.0333 9.248 61.2333 7.808 58.9293 7.808C 57.1532 7.808 55.8732 8.992 55.8732 10.448C 55.8732 11.568 56.5453 12.528 58.2413 12.896L 59.1532 13.104C 59.7452 13.232 59.9372 13.472 59.9372 13.76C 59.9372 14.112 59.6333 14.448 59.0093 14.448C 58.1773 14.448 57.7933 13.92 57.7612 13.376L 55.6972 13.744ZM 67.0879 13.744C 67.1519 14.624 67.9519 16.24 70.4479 16.24C 72.5759 16.24 73.6159 14.912 73.6159 13.552C 73.6159 12.384 72.8159 11.392 71.1679 11.056L 70.1119 10.848C 69.7599 10.784 69.4879 10.592 69.4879 10.256C 69.4879 9.84 69.8879 9.568 70.3519 9.568C 71.0879 9.568 71.4239 10.016 71.4879 10.544L 73.5039 10.176C 73.4239 9.248 72.6239 7.808 70.3199 7.808C 68.5439 7.808 67.2639 8.992 67.2639 10.448C 67.2639 11.568 67.9359 12.528 69.6319 12.896L 70.5439 13.104C 71.1359 13.232 71.3279 13.472 71.3279 13.76C 71.3279 14.112 71.0239 14.448 70.3999 14.448C 69.5679 14.448 69.1839 13.92 69.1519 13.376L 67.0879 13.744ZM 78.109 5.728L 75.933 5.728L 75.933 6.752C 75.933 7.488 75.533 8.048 74.701 8.048L 74.301 8.048L 74.301 10.176L 75.709 10.176L 75.709 13.584C 75.709 15.168 76.717 16.144 78.365 16.144C 79.133 16.144 79.533 15.968 79.629 15.92L 79.629 13.904C 79.485 13.936 79.245 13.984 78.989 13.984C 78.461 13.984 78.109 13.808 78.109 13.152L 78.109 10.176L 79.661 10.176L 79.661 8.048L 78.109 8.048L 78.109 5.728ZM 86.3468 8.048C 86.1868 8 85.9467 7.968 85.7067 7.968C 85.0667 7.968 84.0588 8.224 83.6428 9.12L 83.6428 8.048L 81.2908 8.048L 81.2908 16L 83.7228 16L 83.7228 12.528C 83.7228 10.944 84.6028 10.368 85.5787 10.368C 85.8187 10.368 86.0747 10.384 86.3468 10.448L 86.3468 8.048ZM 87.4045 13.808C 87.4045 15.072 88.4125 16.224 90.1565 16.224C 91.2125 16.224 91.9805 15.776 92.3965 15.104C 92.3965 15.648 92.4605 15.936 92.4765 16L 94.6685 16C 94.6525 15.92 94.5725 15.392 94.5725 14.768L 94.5725 10.88C 94.5725 9.248 93.6285 7.808 91.0525 7.808C 88.7165 7.808 87.6605 9.312 87.5645 10.448L 89.6765 10.88C 89.7245 10.288 90.1885 9.712 91.0365 9.712C 91.8045 9.712 92.2045 10.112 92.2045 10.576C 92.2045 10.848 92.0605 11.056 91.6285 11.12L 89.7565 11.408C 88.4445 11.6 87.4045 12.4 87.4045 13.808ZM 90.7485 14.464C 90.0765 14.464 89.8045 14.064 89.8045 13.648C 89.8045 13.088 90.1885 12.848 90.7005 12.768L 92.2045 12.528L 92.2045 12.88C 92.2045 14.112 91.4685 14.464 90.7485 14.464ZM 99.4527 5.728L 97.2768 5.728L 97.2768 6.752C 97.2768 7.488 96.8767 8.048 96.0447 8.048L 95.6448 8.048L 95.6448 10.176L 97.0528 10.176L 97.0528 13.584C 97.0528 15.168 98.0607 16.144 99.7087 16.144C 100.477 16.144 100.877 15.968 100.973 15.92L 100.973 13.904C 100.829 13.936 100.589 13.984 100.333 13.984C 99.8047 13.984 99.4527 13.808 99.4527 13.152L 99.4527 10.176L 101.005 10.176L 101.005 8.048L 99.4527 8.048L 99.4527 5.728ZM 104.475 11.072C 104.523 10.48 105.034 9.728 106.058 9.728C 107.21 9.728 107.627 10.464 107.659 11.072L 104.475 11.072ZM 107.835 13.136C 107.611 13.76 107.114 14.176 106.234 14.176C 105.29 14.176 104.475 13.536 104.427 12.64L 109.963 12.64C 109.979 12.592 110.011 12.224 110.011 11.888C 110.011 9.328 108.49 7.808 106.026 7.808C 103.962 7.808 102.058 9.44 102.058 12C 102.058 14.672 104.011 16.24 106.203 16.24C 108.219 16.24 109.483 15.088 109.867 13.712L 107.835 13.136ZM 111.012 16.448C 111.236 17.872 112.692 19.28 114.98 19.28C 117.956 19.28 119.236 17.296 119.236 15.008L 119.236 8.048L 116.916 8.048L 116.916 8.896C 116.692 8.48 116.004 7.904 114.708 7.904C 112.532 7.904 111.012 9.696 111.012 11.792C 111.012 14 112.596 15.664 114.708 15.664C 115.86 15.664 116.548 15.2 116.836 14.768L 116.836 15.136C 116.836 16.576 116.084 17.168 114.868 17.168C 113.956 17.168 113.316 16.608 113.156 15.84L 111.012 16.448ZM 115.156 13.552C 114.18 13.552 113.444 12.88 113.444 11.792C 113.444 10.704 114.244 10.032 115.156 10.032C 116.068 10.032 116.852 10.704 116.852 11.792C 116.852 12.88 116.148 13.552 115.156 13.552ZM 124.333 19.056L 129.229 8.048L 126.653 8.048L 124.893 12.304L 122.957 8.048L 120.237 8.048L 123.581 14.928L 121.773 19.056L 124.333 19.056Z"/>
</defs>
</svg>
